<?xml version="1.0" encoding="UTF-8"?>
<svg id="Layer_3" data-name="Layer 3" xmlns="http://www.w3.org/2000/svg" viewBox="0 0 1260.95 242.87">
  <g id="Layer_1" data-name="Layer 1">
    <g>
      <g>
        <path d="M607.47,178.73l-359.04.42c-2.86-5.9-5.74-11.79-8.67-17.69,25.38-8.43,47.17-31.48,53.38-58.23,3.42-14.72,6.43-29.33,9.63-44.1,7.31-33.83-14-54.43-48.13-54.43H21c16.63,11.61,21,34.48,15.75,56.77C24.5,119.42,12.25,177.38,0,235.33h82.26c5.25-23.4,9.63-46.91,14.87-70.4h54.25c11.38,23.5,42.78,71.35,42.78,71.35l376.4.69,36.91-58.23ZM108.51,110.06c4.37-19.19,8.75-38.48,12.25-57.77h80.5c10.5,0,18.11,9.21,15.75,20.6-1.14,5.47-2.32,10.9-3.5,16.57-2.33,11.22-14,20.6-24.5,20.6h-80.5Z"/>
        <path d="M303.11,152.65l263.22,1.35,36.91-58.23-277.01.42c-1.61,19.89-9.46,38.69-23.11,56.46Z"/>
        <path d="M902.4,201.58c-6.01,11.58-12.77,22.22-12.77,22.22-4.84,7.61-9.4,14.01-13.22,19.07h233.4c33.25,0,67.8-27.71,75.25-61.79.27-1.23.51-2.46.78-3.69,7.96-36.8,14.81-73.84,22.85-110.63,7.45-34.08-14.88-61.79-48.13-61.79h-315.09c-30.63,44.28-62.13,88.57-91.88,132.85-12.25-44.28-23.63-88.57-35-132.85-17.26,0-321.45-.17-404.85-.18,14.55,4.85,21.82,36.37,13.33,58.19l315.56.51s32.21,121.52,47.96,179.38h82.25c26.25-39.6,118.18-179.92,118.18-179.92,13.42,0,34.12,0,47.55,0-11.98,68.14-28.13,123.13-36.17,138.63ZM1123.81,80.43c-6.29,28.99-12.09,58.08-18.37,86.98-.59,2.72-1.71,5.31-3.22,7.68-4.81,7.56-13.71,12.91-23.03,12.91h-91.88c1.2-5.32,19.47-90.72,27.13-128.17h91.88c12.25,0,19.97,9.23,17.5,20.6Z"/>
      </g>
      <path d="M1237.07,0v3.09h-5.97v15.58h-3.71V3.09h-5.97V0h15.65ZM1257.24,18.67l-.69-10.98c-.07-1.44-.07-3.23-.14-5.22h-.21c-.48,1.65-1.03,3.84-1.58,5.56l-3.36,10.36h-3.84l-3.36-10.64c-.34-1.44-.89-3.64-1.3-5.28h-.21c0,1.72-.07,3.5-.14,5.22l-.69,10.98h-3.57l1.37-18.67h5.56l3.23,9.13c.41,1.44.75,2.81,1.24,4.73h.07c.48-1.72.89-3.29,1.3-4.67l3.23-9.2h5.35l1.44,18.67h-3.71Z"/>
    </g>
  </g>
</svg>