<?xml version="1.0" encoding="UTF-8"?>
<svg id="Layer_2" data-name="Layer 2" xmlns="http://www.w3.org/2000/svg" viewBox="0 0 824.12 824.12">
  <defs>
    <style>
      .cls-1 {
        font-family: Manufaktur-UltraExpandedBlack, Manufaktur;
        font-size: 48.27px;
        font-weight: 800;
      }

      .cls-1, .cls-2 {
        fill: #163158;
      }
    </style>
  </defs>
  <g id="Layer_1" data-name="Layer 1">
    <g>
      <path class="cls-2" d="M467.42,363.74h-103.61v31.36h103.61c8.53,0,16.06-6.78,16.06-15.8s-7.52-15.56-16.06-15.56Z"/>
      <path class="cls-2" d="M619.39,455.67c-.56-1.86-24.58-16.8-29-20.53-10.37-8.75-12.77-24.3-7.09-36.24.4-.85,1-1.59,1.72-2.2,9.28-7.77,22.12-13.6,30.92-21.41,2.09-1.85,3.92-3.68,3.66-6.74l-13.02-39.03c-.84-2.51-3.08-4.28-5.72-4.52h-.06c-9.27-.84-22.38,1.41-31.98,1.66-15.41.4-28.49-21.03-27.3-27.19,2.11-10.9,11.73-25.79,13.2-37.14.29-2.28.3-3.66-.05-4.79.33-2.28-.76-3.87-2.34-5.52-4.6-4.84-19.98-15.33-26.16-19.38-6.49-4.25-8.24-7.28-16.17-2.87-9.18,5.1-23.64,21.37-32,23.12-7.58,1.58-23.89-2.99-28.6-9.86-3.31-8.36-8.99-34.77-12-38.7-.12-.28-.21-.57-.33-.85-1.69-2.69-6.28-3.45-9.46-3.65-9.17-2.18-20.26-1.13-28.24.05-2.52.04-5.03.06-7.51,0-2.23-.06-4.42.91-5.62,2.79-.3.47-.58,1.01-.87,1.67-4.62,10.73-5.97,25.91-10.53,36.57-2.97,6.93-19.02,11.74-26.08,12.81-1.72.26-3.47-.21-4.87-1.26l-33.37-24.81c-2.58-1.63-4.45-.64-6.81.51-5.95,2.89-25.42,17.58-31.16,22.36-1.95,1.63-4.5,3.42-4.12,6.28l2.34,6.57,10.24,30.37c.22.67.57,1.25.96,1.78.2,1.67.22,3.36-.09,5.02-.5,2.74-9.44,14.41-11.79,16.96-1.76,1.91-4.39,4.46-7,4.99-11.35,2.31-29.21-1.25-41.41.17-.39.05-.85.21-1.35.46-2.39,1.17-4.11,3.38-4.93,5.91-3.45,10.62-12.87,32.3-10.73,39.37.56,1.86,24.58,16.8,29,20.53,10.37,8.75,12.77,24.3,7.09,36.24-.4.85-1,1.59-1.72,2.2-9.28,7.77-22.12,13.6-30.92,21.41-2.09,1.85-3.92,3.68-3.66,6.74l13.02,39.03c.84,2.51,3.08,4.28,5.72,4.52h.06c9.27.84,22.38-1.41,31.98-1.66,15.41-.4,28.49,21.03,27.3,27.19-2.11,10.9-11.73,25.79-13.2,37.14-.29,2.28-.3,3.66.05,4.79-.33,2.28.76,3.87,2.34,5.52,4.6,4.84,19.98,15.33,26.16,19.38,6.49,4.25,8.24,7.28,16.17,2.87,9.18-5.1,23.64-21.37,32-23.12,7.58-1.58,23.89,2.99,28.6,9.86,3.31,8.36,8.99,34.77,12,38.7.12.28.21.57.33.85,1.69,2.69,6.28,3.45,9.46,3.65,9.17,2.18,20.26,1.13,28.24-.05,2.52-.04,5.03-.06,7.51,0,2.23.06,4.42-.91,5.62-2.79.3-.47.58-1.01.87-1.67,4.62-10.73,5.97-25.91,10.53-36.57,2.97-6.93,19.02-11.74,26.08-12.81,1.72-.26,3.47.21,4.87,1.26l33.37,24.81c2.58,1.63,4.45.64,6.81-.51,5.95-2.89,25.42-17.58,31.16-22.36,1.95-1.63,4.5-3.42,4.12-6.28l-2.34-6.57-10.24-30.37c-.23-.67-.57-1.25-.96-1.78-.2-1.67-.22-3.36.09-5.02.5-2.74,9.44-14.41,11.79-16.96,1.76-1.91,4.39-4.46,7-4.99,11.35-2.31,29.21,1.25,41.41-.17.39-.05.85-.21,1.35-.46,2.39-1.17,4.11-3.38,4.93-5.91,3.45-10.62,12.87-32.3,10.73-39.37ZM478.71,499.72h-171.86v-175.37h171.86c62.47.75,73.76,80.79,17.31,88.06,56.45,6.77,45.16,87.31-17.31,87.31Z"/>
      <path class="cls-2" d="M467.42,428.97h-103.61v32.36h103.61c8.53,0,16.06-7.28,16.06-16.06,0-9.28-7.52-16.31-16.06-16.31Z"/>
      <g>
        <text class="cls-1" transform="translate(663.47 442.25) rotate(101.5)"><tspan x="0" y="0">B</tspan></text>
        <text class="cls-1" transform="translate(654.48 484.81) rotate(110.99)"><tspan x="0" y="0">E</tspan></text>
        <text class="cls-1" transform="translate(640.08 521.78) rotate(119.93)"><tspan x="0" y="0">T</tspan></text>
        <text class="cls-1" transform="translate(620.85 555.31) rotate(129.28)"><tspan x="0" y="0">T</tspan></text>
        <text class="cls-1" transform="translate(596.37 585.44) rotate(137.45)"><tspan x="0" y="0">E</tspan></text>
        <text class="cls-1" transform="translate(567.16 612.25) rotate(146.93)"><tspan x="0" y="0">R</tspan></text>
        <text class="cls-1" transform="translate(529.99 635.32) rotate(153.84)"><tspan x="0" y="0"> </tspan></text>
        <text class="cls-1" transform="translate(514.56 642.8) rotate(157.74)"><tspan x="0" y="0"> </tspan></text>
        <text class="cls-1" transform="translate(499.4 649.98) rotate(165.19)"><tspan x="0" y="0">M</tspan></text>
        <text class="cls-1" transform="translate(452.17 661.89) rotate(175.14)"><tspan x="0" y="0">E</tspan></text>
        <text class="cls-1" transform="translate(412.59 665.06) rotate(-176.01)"><tspan x="0" y="0">T</tspan></text>
        <text class="cls-1" transform="translate(374.03 662.41) rotate(-166.7)"><tspan x="0" y="0">A</tspan></text>
        <text class="cls-1" transform="translate(331.8 651.99) rotate(-157.51)"><tspan x="0" y="0">L</tspan></text>
        <text class="cls-1" transform="translate(297.59 637.1) rotate(-151.32)"><tspan x="0" y="0"> </tspan></text>
        <text class="cls-1" transform="translate(282.6 628.79) rotate(-147.43)"><tspan x="0" y="0"> </tspan></text>
        <text class="cls-1" transform="translate(268.08 620.27) rotate(-140.72)"><tspan x="0" y="0">F</tspan></text>
        <text class="cls-1" transform="translate(237.25 595.22) rotate(-131.7)"><tspan x="0" y="0">A</tspan></text>
        <text class="cls-1" transform="translate(208.58 562.56) rotate(-122.22)"><tspan x="0" y="0">S</tspan></text>
        <text class="cls-1" transform="translate(187.59 528.89) rotate(-113.29)"><tspan x="0" y="0">T</tspan></text>
        <text class="cls-1" transform="translate(172.41 493.3) rotate(-104.42)"><tspan x="0" y="0">E</tspan></text>
        <text class="cls-1" transform="translate(162.54 454.89) rotate(-95.05)"><tspan x="0" y="0">R</tspan></text>
        <text class="cls-1" transform="translate(159.63 411.23) rotate(-88.21)"><tspan x="0" y="0"> </tspan></text>
        <text class="cls-1" transform="translate(160.26 394.07) rotate(-84.32)"><tspan x="0" y="0"> </tspan></text>
        <text class="cls-1" transform="translate(161.25 377.29) rotate(-77.45)"><tspan x="0" y="0">B</tspan></text>
        <text class="cls-1" transform="translate(171 334.95) rotate(-67.97)"><tspan x="0" y="0">E</tspan></text>
        <text class="cls-1" transform="translate(186.07 298.24) rotate(-59.04)"><tspan x="0" y="0">T</tspan></text>
        <text class="cls-1" transform="translate(206.14 265.12) rotate(-50.35)"><tspan x="0" y="0">T</tspan></text>
        <text class="cls-1" transform="translate(230.94 235.36) rotate(-41.51)"><tspan x="0" y="0">E</tspan></text>
        <text class="cls-1" transform="translate(260.63 209.09) rotate(-32.02)"><tspan x="0" y="0">R</tspan></text>
        <text class="cls-1" transform="translate(298.22 186.7) rotate(-25.11)"><tspan x="0" y="0"> </tspan></text>
        <text class="cls-1" transform="translate(313.81 179.5) rotate(-21.21)"><tspan x="0" y="0"> </tspan></text>
        <text class="cls-1" transform="translate(329.08 172.61) rotate(-13.77)"><tspan x="0" y="0">M</tspan></text>
        <text class="cls-1" transform="translate(376.51 161.56) rotate(-3.83)"><tspan x="0" y="0">E</tspan></text>
        <text class="cls-1" transform="translate(416.11 159.1) rotate(5.02)"><tspan x="0" y="0">T</tspan></text>
        <text class="cls-1" transform="translate(454.65 162.45) rotate(14.35)"><tspan x="0" y="0">A</tspan></text>
        <text class="cls-1" transform="translate(496.69 173.64) rotate(23.54)"><tspan x="0" y="0">L</tspan></text>
        <text class="cls-1" transform="translate(530.62 189.17) rotate(29.72)"><tspan x="0" y="0"> </tspan></text>
        <text class="cls-1" transform="translate(545.46 197.74) rotate(33.61)"><tspan x="0" y="0"> </tspan></text>
        <text class="cls-1" transform="translate(559.8 206.66) rotate(39.96)"><tspan x="0" y="0">F</tspan></text>
        <text class="cls-1" transform="translate(590.18 232.11) rotate(49.34)"><tspan x="0" y="0">A</tspan></text>
        <text class="cls-1" transform="translate(618.25 265.29) rotate(58.83)"><tspan x="0" y="0">S</tspan></text>
        <text class="cls-1" transform="translate(638.61 299.33) rotate(67.75)"><tspan x="0" y="0">T</tspan></text>
        <text class="cls-1" transform="translate(653.15 335.21) rotate(76.62)"><tspan x="0" y="0">E</tspan></text>
        <text class="cls-1" transform="translate(662.32 373.78) rotate(85.99)"><tspan x="0" y="0">R</tspan></text>
        <text class="cls-1" transform="translate(664.44 417.5) rotate(92.83)"><tspan x="0" y="0"> </tspan></text>
        <text class="cls-1" transform="translate(663.51 434.64) rotate(96.72)"><tspan x="0" y="0"> </tspan></text>
        <text class="cls-1" transform="translate(661.41 451.68) rotate(100.62)"><tspan x="0" y="0"> </tspan></text>
      </g>
    </g>
  </g>
</svg>