<?xml version="1.0" encoding="UTF-8"?>
<svg id="Layer_3" data-name="Layer 3" xmlns="http://www.w3.org/2000/svg" xmlns:xlink="http://www.w3.org/1999/xlink" viewBox="0 0 908.17 701.23">
  <defs>
    <style>
      .cls-1 {
        fill: url(#linear-gradient-2);
      }

      .cls-2 {
        fill: url(#linear-gradient-4);
      }

      .cls-3 {
        fill: url(#linear-gradient-3);
      }

      .cls-4 {
        fill: url(#linear-gradient-5);
      }

      .cls-5 {
        fill: url(#linear-gradient-8);
      }

      .cls-6 {
        fill: url(#linear-gradient-7);
      }

      .cls-7 {
        fill: url(#linear-gradient-9);
      }

      .cls-8 {
        fill: url(#linear-gradient-6);
      }

      .cls-9 {
        fill: #192c43;
      }

      .cls-10 {
        fill: url(#linear-gradient);
      }
    </style>
    <linearGradient id="linear-gradient" x1="351.66" y1="215.34" x2="563.98" y2="427.66" gradientUnits="userSpaceOnUse">
      <stop offset="0" stop-color="#f4e171"/>
      <stop offset=".25" stop-color="#f0b956"/>
      <stop offset=".59" stop-color="#ec8b35"/>
      <stop offset=".85" stop-color="#e96d21"/>
      <stop offset="1" stop-color="#e9631a"/>
    </linearGradient>
    <linearGradient id="linear-gradient-2" x1="438.95" y1="255.1" x2="438.95" y2="252.8" xlink:href="#linear-gradient"/>
    <linearGradient id="linear-gradient-3" x1="438.95" y1="255.1" x2="438.95" y2="252.8" xlink:href="#linear-gradient"/>
    <linearGradient id="linear-gradient-4" x1="438.95" y1="255.1" x2="438.95" y2="252.8" xlink:href="#linear-gradient"/>
    <linearGradient id="linear-gradient-5" x1="416.9" y1="349.01" x2="416.9" y2="0" xlink:href="#linear-gradient"/>
    <linearGradient id="linear-gradient-6" x1="522.15" y1="302.99" x2="522.15" y2="239.75" xlink:href="#linear-gradient"/>
    <linearGradient id="linear-gradient-7" x1="365.68" y1="291.9" x2="384.85" y2="258.7" xlink:href="#linear-gradient"/>
    <linearGradient id="linear-gradient-8" x1="517.54" y1="391.79" x2="517.54" y2="338.18" xlink:href="#linear-gradient"/>
    <linearGradient id="linear-gradient-9" x1="405.02" y1="387.62" x2="536.93" y2="255.71" xlink:href="#linear-gradient"/>
  </defs>
  <g id="Layer_1" data-name="Layer 1">
    <g>
      <g>
        <path class="cls-10" d="M464.36,441.61c3.51.49,7.03.26,10.48-1.07,5.18-1.98,8.36-6.43,12.06-10.35,13.67-14.49,27.66-28.68,40.88-43.6,7.12-8.03,12.92-17.2,17.96-26.45,5.44-9.97,4.94-20.41-1.47-30.32-5.17-8-8.84-16.52-7.41-25.94.91-6,2.89-11.87,4.69-19.01,21.63,17.8,19.14,38.39,13.27,59.6.59.15,1.17.31,1.76.46,3.15-5.81,6.43-11.58,9.42-17.45,6.7-13.17,8.27-26.63,3.47-40.72-4.63-13.58,5.98-32.58,22.57-41.33,5.69,16.71,9.43,32.74-4.28,48.12-4.01,4.5-6.39,10.35-8.65,15.86-3.61,8.81-6.51,17.86-9.69,26.82-.4,1.13-.67,2.3.25,4.23,3.23-3.14,6.98-5.98,9.61-9.48,11.1-14.74,26.66-22.16,46.79-23.76-5.41,15.59-13.04,28.88-32.13,33.19-4.09.92-8.44.91-12.64,1.47-8.06,1.07-14.52,4.63-18.96,10.75-8.5,11.7-16.83,23.5-24.72,36.28,4.56-2.94,9.4-5.58,13.61-8.87,9.06-7.09,17.95-14.59,30.29-16.37,8.86-1.28,17.96-1.3,26.95-1.88.41.69.82,1.37,1.23,2.06-1.76,2.64-3.19,5.52-5.32,7.89-10.85,12.03-25.11,18.63-42.27,18.46-16.19-.16-29.25,5.1-40.21,15.22-6.9,6.37-13.43,13.05-19.64,20.35,23.35-14.32,47.45-23.34,75.74-12.64-7.82,10.95-27.45,18.97-41.25,15.93-16.07-3.54-29.17.82-40.63,10.47-15.99,13.47-28.42,18.43-31.34,37.86-.43,2.86-.97,5.71-1.5,8.79h-11.14c-1.48-8.4-2.53-17.05-4.6-25.5-2.82-11.5-.32-10.05-10.36-17.73-11.81-9.03-25.45-7.73-39.33-5.6-18.38,2.83-34.32-1.59-48.33-13.88.33.29,9.18-3.37,10.32-3.67,3.52-.91,7.12-1.48,10.75-1.73,7.21-.49,14.43.37,21.45,1.99,13.68,3.16,26.07,9.75,39.76,12.51-.84-.17-33.27-20.7-41.2-25.79-11.03-7.08-23.84-8.69-37.14-8.14-19.59.82-33.01-8.14-43.09-22.23-.52-.73-.91-1.55-1.5-2.56,21.69-4.83,39.89.05,55.56,13.56,5.09,4.39,10.69,8.17,18.24,9.05-9.91-10.87-19.37-21.55-29.23-31.93-7.28-7.66-17.2-11.26-28.13-10.83-15.31.6-39.19-14.48-43.87-30.86,12.94.14,25.95.12,36.5,7.28,9.88,6.71,18.49,14.93,27.93,22.7-6.04-11.71-11.62-23.05-17.75-34.14-1.84-3.32-4.63-6.67-7.95-8.8-15.24-9.77-19.08-23.31-17.13-39,.33-2.67.95-5.31,1.52-8.44,16.78,8.2,27.82,20.46,28.24,37.07.46,18.58,9.56,33.44,19.4,48.49,1.82,2.78,4.03,5.37,6.94,7.68-2.18-6.51-4.74-12.95-6.47-19.56-3.57-13.71,1-28.12,12.03-39.1,8.35,13.29,11.42,26.91,5.99,41.8-3.51,9.63-7.68,19.67-1.08,29.49,5.32,7.91,10.85,15.9,17.61,22.8,7.74,7.9,16.94,14.65,25.51,21.9.38.26.76.53,1.15.79,8.19,5.6,16.54,11,25.06,16.07,7.41,4.41,16.37,10.47,25.44,11.73Z"/>
        <path class="cls-1" d="M439.86,252.8l-1.82,2.3c.83-.74,1.47-1.51,1.82-2.3Z"/>
        <path class="cls-3" d="M439.86,252.8l-1.82,2.3c.83-.74,1.47-1.51,1.82-2.3Z"/>
        <path class="cls-2" d="M439.86,252.8l-1.82,2.3c.83-.74,1.47-1.51,1.82-2.3Z"/>
        <path class="cls-4" d="M515.53,171.84c-5.79-9.13-12.7-17.68-17.47-27.3-5.37-10.83-1.96-21.95,7.83-27.52,5.34-3.04,11.78-4.79,17.92-5.61,9.58-1.29,19.02.62,28.57,5-4.67-13.77-14.09-20.37-27.02-22.9-1.58-.31-3.77-1.24-4.31-2.48-7.33-16.87-25.75-24.1-43.65-20.68-6.92,1.32-13.87,2.71-20.88,3.35-16.08,1.47-30.52-3.1-43.96-13.73,5.48,17.99,14.65,30.86,33.82,33.98-8.9,17.64-5.62,34.54,1.23,51.6,5.03,12.54,9.99,25.24,13.24,38.31,1.89,7.61.34,16.08.34,24.16-1.86-5.99-2.69-12.07-4.34-17.91-4.9-17.38-16.11-30.6-28.86-42.77-15.76-15.04-32.64-29-45.26-47.05-10.81-15.45-17.6-32.08-16.79-51.5.74-17.64,4.52-34.07,15.65-48.81-20.28,7.6-37.15,24.91-43.1,45.82-7.97,28.03-4.48,54.34,14.31,77.67-26.54-17.99-40.74-42.25-37.73-76.49-13.7,17.63-20.28,36.14-17.11,56.92,4,26.13,19.1,44.95,41.97,57.55,6.99,3.85,14.58,6.59,22.69,10.19-33.12-4.65-60.74-17.35-80.1-45.43-2.83,15.72-.19,29.95,8.15,42.97,11.44,17.88,28.47,28.34,48.23,34.33,10.47,3.18,21.47,4.59,31.78,6.7-11.43,4.16-23.97,5.35-36.77,4.93-13.13-.44-25.18-4.15-36.92-12.66,10.41,19.78,25.84,31.67,45.29,38.74,19.47,7.08,39.05,6.88,59.77-.41-11.46,11.54-23.92,18.43-38.42,21.96,1.26-.31,5.09,1.85,6.46,2.25,2.34.7,4.71,1.28,7.1,1.75,4.84.94,9.77,1.37,14.69,1.32,9.81-.1,19.49-2.11,28.8-5.12,0,0,12.32-3.39,17.37-7.91l1.82-2.3c-.35.79-.99,1.56-1.82,2.3l-9.14,11.55c-6.82,6.58-13.28,13.65-18.12,21.84-7.01,11.88-10.27,26.77-5.3,39.64,3.91,10.11,12.86,18.12,23.34,20.88-6.37-14.36-8.5-31.53-2.46-46.03,8.82-21.16,26.63-36,32.84-42.11,5.3-5.22,9.4-11.62,12.28-18.45.64-1.51,1.21-3.04,1.73-4.59,2.88-8.62,4.05-17.72,4.32-26.78.14-4.57,0-9.13-.18-13.69-.09-2.47-.02-3.83.83-4.03.6-.14,1.58.28,3.16,1.28,10.66,6.76,19.43,16.17,25.28,27.36,8.29,15.85,12.3,37.62,5.75,54.84-.68,1.78-1.52,4.09-2.91,5.46,10.13-9.96,18.01-21.31,23.16-34.79,6.37-16.66,6.57-33.51-1.3-49.65-4.43-9.07-10.36-17.42-15.79-25.98ZM498.89,91.49c2.14.39,4.02,2.22,6.01,3.45-.04.63-.09,1.26-.13,1.89-1.76.97-3.93,3.09-5.18,2.64-1.97-.72-3.32-3.15-4.93-4.86,1.42-1.12,3.05-3.33,4.23-3.11Z"/>
        <path class="cls-8" d="M499.78,302.99c1.42-3.03,3.34-5.71,5.67-8.1,2.4-2.46,5.1-4.56,7.85-6.61,3.31-2.47,6.65-4.89,9.63-7.77,8.5-8.23,14.18-18.1,17.14-29.55.95-3.66,1.52-7.38,1.86-11.21.12.3.25.6.35.91,1.36,4.44,2.09,8.99,2.24,13.63.19,5.91-.57,11.68-2.51,17.28-3.5,10.13-10.28,17.17-20.12,21.33-2.77,1.17-5.64,1.98-8.53,2.77-2.45.66-4.86,1.45-7.16,2.54-2.45,1.16-4.66,2.64-6.41,4.77Z"/>
        <path class="cls-6" d="M340.19,274c.82.46,1.64.93,2.46,1.39,4.68,2.64,9.58,4.79,14.74,6.33,18.02,5.39,35.07,3.07,51.2-6.47.79-.47,1.55-.98,2.32-1.46.02-.01.06.02.15.05-.16,1.48-.76,2.81-1.46,4.11-1.88,3.46-4.65,6.1-7.83,8.33-6.74,4.73-14.29,6.93-22.48,6.95-8.8.02-16.79-2.68-24.1-7.47-3.36-2.2-6.64-4.53-9.87-6.92-1.61-1.19-3.04-2.62-4.54-3.96-.25-.22-.45-.51-.67-.76.03-.03.06-.07.09-.1Z"/>
        <path class="cls-5" d="M532.59,338.19c-.11.65-.21,1.31-.32,1.96-.62,3.74-1.57,7.4-2.92,10.99-2.8,7.44-7.12,14.28-13.02,19.64s-15.72,7.28-13.9,16.82c.37,1.93,1.6,4.01,3.56,4.18,1.69.14,3.11-1.18,4.26-2.43,9.27-10.1,20.46-23.93,21.95-37.93.3-2.8.5-5.6.65-8.4.08-1.39-.04-2.78-.08-4.16,0-.23-.06-.46-.1-.69-.03,0-.06,0-.09.01Z"/>
        <path class="cls-7" d="M527.57,319.58c-1.06-7.03-3.15-13.74-6.21-20.14-.08-.16-.18-.31-.32-.56-.09.33-.15.53-.19.74-1.23,6.61-3.94,12.55-8.07,17.84-2.96,3.79-6.61,6.69-11.05,8.57-2.79,1.18-5.69,1.74-8.69,1.39-3.67-.43-6.63-2.19-8.79-5.22-1.73-2.42-2.53-5.18-2.73-8.11-.3-4.36.56-8.51,2.49-12.44,1.23-2.5,2.73-4.85,4.43-7.05,2.01-2.61,4.09-5.18,6.15-7.75,2.82-3.52,5.41-7.19,7.33-11.29,1.24-2.65,2.22-5.37,2.98-8.14.96-3.49,1.56-7.08,1.82-10.76.33-4.73.07-9.43-.73-14.09-1.04-6.03-2.98-11.76-5.64-17.26-3.71-7.64-8.6-14.46-14.42-20.62-1.19-1.26-2.45-2.46-3.78-3.78.05.23.07.33.1.43,1.54,5.02,2.5,10.15,2.83,15.39.27,4.25.21,8.5-.27,12.74-.48,4.31-1.33,8.56-2.58,12.71-2.59,8.62-6.5,16.45-11.91,23.36-2.03,2.59-4.26,5.06-6.72,7.39-3.23,3.05-6.63,5.92-9.98,8.84-3.29,2.87-6.58,5.73-9.53,8.95-3.25,3.53-6.05,7.37-8.06,11.75-1.51,3.27-2.46,6.7-2.66,10.3-.15,2.74.15,5.44.7,8.12.67,3.26,1.67,6.43,2.64,9.6,1.19,3.88,2.35,7.77,2.74,11.84.37,3.77.03,7.45-1.24,11.04-1.39,3.95-3.87,6.92-7.8,8.54-3.91,1.62-7.93,1.75-12.01.77-5.72-1.38-10.28-4.49-13.71-9.25-2.35-3.26-3.94-6.9-5.11-10.72-1.75-5.69-2.93-11.5-3.63-17.41-.52-4.32-.66-8.64-.16-12.97.41-3.6,1.27-7.07,2.69-10.4.09-.2.16-.41.23-.62-.29.19-.48.41-.68.63-2.96,3.41-5.62,7.02-7.48,11.17-8.29,18.49-6.55,40.77,3.33,58.32,14.62,25.99,40.87,43.75,69.96,49.34,11.59,2.23,23.09-5.16,30.77-13.16,4.87-5.08,4.95-6.71,2.07-12.66-2.65-5.48-3.34-10.99-.18-16.5.97-1.68,2.1-3.25,3.35-4.73,1.98-2.34,4.21-4.42,6.51-6.43,2.84-2.47,5.72-4.89,8.52-7.4,3.91-3.52,7.08-7.61,9.32-12.4,2.89-6.19,4.03-12.75,4.03-19.53,0-2.81-.22-5.61-.64-8.39Z"/>
      </g>
      <g>
        <path class="cls-9" d="M51.67,659.7v22.11h6.75c2.57,0,6.51-.06,11.05-2.63v6.33c-4.54-2.51-8.48-2.63-11.05-2.63h-6.75v17.39h-4.9v-41.71h32.03v5.62c-4.48-4.06-8.43-4.48-12.91-4.48h-14.22Z"/>
        <path class="cls-9" d="M88.35,700.27v-41.71h4.9v41.71h-4.9Z"/>
        <path class="cls-9" d="M108.49,662.99v24.32c0,4.48.42,8.43,4.48,12.97h-5.8v-38.78l-2.69-2.93h6.75l29.88,32.57v-19.6c0-4.48-.42-8.43-4.48-12.97h5.8v41.71l-33.94-37.29Z"/>
        <path class="cls-9" d="M189.45,700.27h-5.62l-6.15-13.62h-18.64l-.3.66c-1.97,4.42-2.45,8.43-.06,12.97h-6.75l15.72-35.79-2.69-5.92h5.26l19.24,41.71ZM177.14,685.52l-8.84-19.6-8.72,19.6h17.57Z"/>
        <path class="cls-9" d="M200.14,662.99v24.32c0,4.48.42,8.43,4.48,12.97h-5.8v-38.78l-2.69-2.93h6.75l29.88,32.57v-19.6c0-4.48-.42-8.43-4.48-12.97h5.8v41.71l-33.94-37.29Z"/>
        <path class="cls-9" d="M269.93,697.94c6.87,0,13.86-3.35,17.75-9.86-2.15,8.01-11.53,12.91-20.86,12.91-10.64,0-21.27-6.33-21.27-21.57,0-12.67,9.92-21.57,23.18-21.57,6.39,0,12.97.72,16.43,1.85v7.05c-1.97-3.47-8.54-7.83-16.43-7.83-10.76,0-17.75,8.84-17.75,19,0,13.5,9.32,20.02,18.94,20.02Z"/>
        <path class="cls-9" d="M298.25,700.27v-41.71h4.9v41.71h-4.9Z"/>
        <path class="cls-9" d="M350.11,700.27h-5.62l-6.15-13.62h-18.64l-.3.66c-1.97,4.42-2.45,8.43-.06,12.97h-6.75l15.72-35.79-2.69-5.92h5.26l19.24,41.71ZM337.8,685.52l-8.84-19.6-8.72,19.6h17.57Z"/>
        <path class="cls-9" d="M392.3,694.66v5.62h-32.81v-41.71h5.62v40.57h14.28c4.42,0,8.37-.42,12.91-4.48Z"/>
        <path class="cls-9" d="M449.83,697.94c6.87,0,13.86-3.35,17.75-9.86-2.15,8.01-11.53,12.91-20.86,12.91-10.64,0-21.27-6.33-21.27-21.57,0-12.67,9.92-21.57,23.18-21.57,6.39,0,12.97.72,16.43,1.85v7.05c-1.97-3.47-8.54-7.83-16.43-7.83-10.76,0-17.75,8.84-17.75,19,0,13.5,9.32,20.02,18.94,20.02Z"/>
        <path class="cls-9" d="M523.38,679.42c0,12.67-10.64,21.63-23.96,21.63s-23.96-8.96-23.96-21.63,10.64-21.57,23.96-21.57,23.96,8.9,23.96,21.57ZM517.95,679.42c0-10.58-7.35-20.5-18.52-20.5s-18.52,9.92-18.52,20.5,7.35,20.5,18.52,20.5,18.52-9.92,18.52-20.5Z"/>
        <path class="cls-9" d="M536.29,662.99v24.32c0,4.48.42,8.43,4.48,12.97h-5.8v-38.78l-2.69-2.93h6.75l29.88,32.57v-19.6c0-4.48-.42-8.43-4.48-12.97h5.8v41.71l-33.94-37.29Z"/>
        <path class="cls-9" d="M614.02,689.7c0,8.48-9.26,11.53-18.82,11.53-4.9,0-9.8-.78-13.68-2.03v-7.05c2.75,4.72,9.74,7.59,16.02,7.59s11.41-2.69,11.41-8.9c0-10.76-26.29-9.8-26.29-21.63,0-8.49,8.25-11.53,17.15-11.53,4.48,0,9.2.78,13.09,2.03v7.05c-2.81-4.84-9.38-7.89-15.18-7.89-5.38,0-9.98,2.69-9.98,9.2,0,9.38,26.29,9.26,26.29,21.63Z"/>
        <path class="cls-9" d="M659.97,658.57v23.6c0,12.67-8.66,18.82-17.45,18.82s-17.81-6.33-17.81-18.82v-23.6h4.9v23.6c0,10.7,7.35,16.25,14.64,16.25s14.22-5.38,14.22-16.25v-10.64c0-4.48-.42-8.43-4.48-12.97h5.98Z"/>
        <path class="cls-9" d="M705.44,694.66v5.62h-32.81v-41.71h5.62v40.57h14.28c4.42,0,8.37-.42,12.91-4.48Z"/>
        <path class="cls-9" d="M745.35,658.57v5.62c-4.48-4.06-8.43-4.48-12.91-4.48h-6.03v40.57h-4.84v-40.57h-6.03c-4.42,0-8.37.42-12.91,4.48v-5.62h42.73Z"/>
        <path class="cls-9" d="M754.91,700.27v-41.71h4.9v41.71h-4.9Z"/>
        <path class="cls-9" d="M775.04,662.99v24.32c0,4.48.42,8.43,4.48,12.97h-5.8v-38.78l-2.69-2.93h6.75l29.88,32.57v-19.6c0-4.48-.42-8.43-4.48-12.97h5.8v41.71l-33.94-37.29Z"/>
        <path class="cls-9" d="M861.62,678.94v22.11l-4.54-7.17c-2.33,4.54-8.54,7.23-14.94,7.23-29.46,0-28.98-43.26,1.43-43.26,6.39,0,12.97.72,16.43,1.85v7.05c-2.03-3.47-8.55-7.83-16.43-7.83-23.42,0-24.14,40.16-.72,40.16,15.48,0,17.33-14.4,9.38-20.14h9.38Z"/>
      </g>
      <g>
        <path class="cls-9" d="M70.75,521.68v22.85h-7.42c-.76-2.47-1.54-4.64-2.35-6.51-.81-1.87-1.64-3.43-2.5-4.69-.86-1.26-1.8-2.27-2.84-3.03-1.03-.76-2.26-1.27-3.67-1.55-1.41-.28-3.1-.42-5.07-.42h-23.91v39.65h16.19c2.22,0,3.96-.31,5.22-.95,1.26-.63,2.31-1.7,3.14-3.22s1.63-3.88,2.38-7.11h7.11v29.06h-7.11c-.71-3.03-1.49-5.31-2.35-6.85-.86-1.54-1.88-2.64-3.07-3.29-1.19-.66-2.96-.98-5.33-.98h-16.19v43.66h23.53c2.47,0,4.48-.21,6.02-.64,1.54-.43,2.86-1.16,3.97-2.19,1.11-1.03,2.09-2.38,2.95-4.05.86-1.66,1.58-3.39,2.16-5.18.58-1.79,1.37-4.4,2.38-7.83h7.49l-1.44,26.56H0v-3.71c3.13-.81,5.22-1.7,6.28-2.69,1.06-.98,1.75-2.38,2.08-4.2.33-1.82.49-4.59.49-8.32v-65.46c0-3.48-.13-6.02-.38-7.6-.25-1.59-.67-2.82-1.25-3.71-.58-.88-1.35-1.59-2.31-2.12-.96-.53-2.6-1.12-4.92-1.78v-3.71h70.75Z"/>
        <path class="cls-9" d="M125.77,521.68v3.71c-2.32.4-4.09.91-5.3,1.51s-2.12,1.46-2.72,2.57c-.61,1.11-.91,2.6-.91,4.46,0,1.72.2,3.57.61,5.56.4,1.99.98,4.23,1.74,6.7l17.71,61.75,21.72-62.2c.3-.96.61-1.97.91-3.03.3-1.06.57-2.09.79-3.1.23-1.01.38-1.89.45-2.65.08-.76.11-1.46.11-2.12,0-3.03-.69-5.23-2.08-6.62-1.39-1.39-3.75-2.33-7.08-2.84v-3.71h31.78v3.71c-2.07.5-3.73,1.24-4.99,2.19-1.26.96-2.51,2.5-3.75,4.62-1.24,2.12-2.74,5.5-4.5,10.14l-31.4,83.84h-9.91l-25.5-84.37c-1.36-4.59-2.55-7.86-3.56-9.8-1.01-1.94-2.12-3.41-3.33-4.39-1.21-.98-2.88-1.73-4.99-2.23v-3.71h34.2Z"/>
        <path class="cls-9" d="M273.26,521.68v22.85h-7.42c-.76-2.47-1.54-4.64-2.35-6.51-.81-1.87-1.64-3.43-2.5-4.69-.86-1.26-1.8-2.27-2.84-3.03-1.03-.76-2.26-1.27-3.67-1.55-1.41-.28-3.1-.42-5.07-.42h-23.91v39.65h16.19c2.22,0,3.96-.31,5.22-.95,1.26-.63,2.31-1.7,3.14-3.22s1.63-3.88,2.38-7.11h7.11v29.06h-7.11c-.71-3.03-1.49-5.31-2.35-6.85-.86-1.54-1.88-2.64-3.07-3.29-1.19-.66-2.96-.98-5.33-.98h-16.19v43.66h23.53c2.47,0,4.48-.21,6.02-.64,1.54-.43,2.86-1.16,3.97-2.19,1.11-1.03,2.09-2.38,2.95-4.05.86-1.66,1.58-3.39,2.16-5.18.58-1.79,1.37-4.4,2.38-7.83h7.49l-1.44,26.56h-70.07v-3.71c3.13-.81,5.22-1.7,6.28-2.69,1.06-.98,1.75-2.38,2.08-4.2.33-1.82.49-4.59.49-8.32v-65.46c0-3.48-.13-6.02-.38-7.6-.25-1.59-.67-2.82-1.25-3.71-.58-.88-1.35-1.59-2.31-2.12-.96-.53-2.6-1.12-4.92-1.78v-3.71h70.75Z"/>
        <path class="cls-9" d="M324.64,580.1v25.73c0,3.63.14,6.27.42,7.91.28,1.64.69,2.88,1.25,3.71.55.83,1.31,1.51,2.27,2.04.96.53,2.6,1.12,4.92,1.78v3.71h-31.93v-3.71c3.13-.81,5.22-1.7,6.28-2.69,1.06-.98,1.75-2.38,2.08-4.2.33-1.82.49-4.59.49-8.32v-65.46c0-3.48-.13-6.02-.38-7.6-.25-1.59-.67-2.82-1.25-3.71-.58-.88-1.35-1.59-2.31-2.12-.96-.53-2.6-1.12-4.92-1.78v-3.71h37.46c11.8,0,20.63,2.14,26.48,6.43,5.85,4.29,8.78,10.95,8.78,19.98,0,6.91-1.9,12.79-5.71,17.63-3.81,4.84-9.52,8.63-17.14,11.35v.61c3.08,1.26,5.71,3.06,7.91,5.41,2.19,2.35,4.63,5.99,7.3,10.93l6.81,12.41c1.97,3.63,3.66,6.41,5.07,8.32,1.41,1.92,2.85,3.38,4.31,4.39,1.46,1.01,3.41,1.72,5.83,2.12v3.71h-20.96c-1.92-2.67-3.73-5.55-5.45-8.63-1.72-3.08-3.41-6.2-5.07-9.38l-6.66-12.64c-2.02-3.83-3.67-6.66-4.96-8.48-1.29-1.82-2.47-3.09-3.56-3.82-1.09-.73-2.25-1.24-3.48-1.51-1.24-.28-3.09-.42-5.56-.42h-8.32ZM324.64,528.65v44.95h8.55c4.39,0,7.94-.31,10.67-.95,2.72-.63,5.25-1.83,7.57-3.59,2.32-1.77,4.17-4.22,5.56-7.38,1.39-3.15,2.08-7.02,2.08-11.62s-.82-8.78-2.46-11.96c-1.64-3.18-4.12-5.6-7.45-7.26s-7.82-2.5-13.47-2.5c-4.54,0-8.22.1-11.05.3Z"/>
        <path class="cls-9" d="M476.75,521.68v22.85h-7.42c-1.11-3.43-2.18-6.2-3.22-8.32-1.03-2.12-2.12-3.73-3.25-4.84-1.13-1.11-2.46-1.89-3.97-2.35s-3.51-.68-5.98-.68h-22.17v41.16h15.59c2.22,0,3.96-.37,5.22-1.1,1.26-.73,2.31-1.95,3.14-3.67.83-1.71,1.63-4.36,2.38-7.95h7.11v31.93h-7.11c-.76-3.43-1.56-6.02-2.42-7.76-.86-1.74-1.88-2.98-3.06-3.71-1.19-.73-2.94-1.1-5.26-1.1h-15.59v29.66c0,3.03.18,5.45.53,7.26.35,1.82.93,3.25,1.74,4.31.81,1.06,1.89,1.85,3.25,2.38,1.36.53,3.05,1.02,5.07,1.48v3.71h-33.6v-3.71c3.13-.81,5.22-1.7,6.28-2.69,1.06-.98,1.75-2.38,2.08-4.2.33-1.82.49-4.59.49-8.32v-65.46c0-3.48-.13-6.02-.38-7.6-.25-1.59-.67-2.82-1.25-3.71-.58-.88-1.35-1.59-2.31-2.12-.96-.53-2.6-1.12-4.92-1.78v-3.71h69.01Z"/>
        <path class="cls-9" d="M523.82,618.01h19.83c2.17,0,3.98-.13,5.45-.38,1.46-.25,2.71-.64,3.75-1.17,1.03-.53,1.97-1.26,2.8-2.19.83-.93,1.63-2.16,2.38-3.67.76-1.51,1.48-3.42,2.16-5.71.68-2.3,1.53-5.74,2.53-10.33h7.64l-1.51,30.42h-68.03v-3.71c3.13-.81,5.22-1.7,6.28-2.69,1.06-.98,1.75-2.38,2.08-4.2.33-1.82.49-4.59.49-8.32v-65.46c0-3.48-.13-6.02-.38-7.6-.25-1.59-.67-2.82-1.25-3.71-.58-.88-1.35-1.59-2.31-2.12-.96-.53-2.6-1.12-4.92-1.78v-3.71h31.86v3.71c-2.22.61-3.8,1.15-4.73,1.63-.93.48-1.7,1.12-2.31,1.93-.61.81-1.06,2.04-1.36,3.71-.3,1.66-.45,4.31-.45,7.95v77.41Z"/>
        <path class="cls-9" d="M644.97,624.97v-3.71c2.52-.5,4.4-1.06,5.64-1.66,1.24-.61,2.16-1.45,2.76-2.54.61-1.08.91-2.53.91-4.35,0-1.71-.2-3.57-.61-5.56-.4-1.99-.98-4.22-1.74-6.7l-2.8-9.76h-35.26l-2.57,7.42c-1.31,3.73-2.17,6.56-2.57,8.48-.4,1.92-.61,3.66-.61,5.22,0,3.03.77,5.25,2.31,6.66,1.54,1.41,3.9,2.35,7.08,2.8v3.71h-32.31v-3.71c2.82-.45,5.28-2.09,7.38-4.92,2.09-2.82,4.12-6.86,6.09-12.11l31.55-83.77h11.96l25.73,84.37c1.21,3.93,2.28,6.94,3.22,9,.93,2.07,2.05,3.68,3.37,4.84,1.31,1.16,3.1,2.02,5.37,2.57v3.71h-34.88ZM615.92,584.11h31.63l-14.38-48.81-17.25,48.81Z"/>
        <path class="cls-9" d="M808.43,525.39c-2.22.56-3.82,1.11-4.81,1.66-.98.56-1.77,1.25-2.35,2.08s-1.01,2.08-1.29,3.75c-.28,1.66-.42,4.24-.42,7.72v65.46c0,3.38.11,5.85.34,7.42.23,1.56.61,2.8,1.14,3.71s1.31,1.66,2.35,2.27c1.03.61,2.71,1.21,5.03,1.82v3.71h-31.55v-3.71c2.88-.71,4.87-1.51,5.98-2.42,1.11-.91,1.87-2.24,2.27-4.01.4-1.77.61-4.69.61-8.78v-28.98c0-7.62.11-15.32.34-23.12.23-7.79.49-13.13.79-16h-1.29l-29.97,74.99h-8.7l-27.85-76.2h-1.29c.25,3.08.49,8.65.72,16.72.23,8.07.34,16.37.34,24.9v27.7c0,3.38.11,5.85.34,7.42.23,1.56.61,2.8,1.13,3.71s1.31,1.66,2.35,2.27c1.03.61,2.71,1.21,5.03,1.82v3.71h-27.62v-3.71c3.13-.81,5.22-1.7,6.28-2.69,1.06-.98,1.75-2.38,2.08-4.2.33-1.82.49-4.59.49-8.32v-65.46c0-3.48-.13-6.02-.38-7.6-.25-1.59-.67-2.82-1.25-3.71-.58-.88-1.35-1.59-2.31-2.12-.96-.53-2.6-1.12-4.92-1.78v-3.71h27.01l26.56,73.63,29.21-73.63h25.58v3.71Z"/>
        <path class="cls-9" d="M907.41,521.68v22.85h-7.42c-.76-2.47-1.54-4.64-2.35-6.51-.81-1.87-1.64-3.43-2.5-4.69-.86-1.26-1.8-2.27-2.84-3.03-1.03-.76-2.26-1.27-3.67-1.55-1.41-.28-3.1-.42-5.07-.42h-23.91v39.65h16.19c2.22,0,3.96-.31,5.22-.95,1.26-.63,2.31-1.7,3.14-3.22s1.63-3.88,2.38-7.11h7.11v29.06h-7.11c-.71-3.03-1.49-5.31-2.35-6.85-.86-1.54-1.88-2.64-3.07-3.29-1.19-.66-2.96-.98-5.33-.98h-16.19v43.66h23.53c2.47,0,4.48-.21,6.02-.64,1.54-.43,2.86-1.16,3.97-2.19,1.11-1.03,2.09-2.38,2.95-4.05.86-1.66,1.58-3.39,2.16-5.18.58-1.79,1.37-4.4,2.38-7.83h7.49l-1.44,26.56h-70.07v-3.71c3.13-.81,5.22-1.7,6.28-2.69,1.06-.98,1.75-2.38,2.08-4.2.33-1.82.49-4.59.49-8.32v-65.46c0-3.48-.13-6.02-.38-7.6-.25-1.59-.67-2.82-1.25-3.71-.58-.88-1.35-1.59-2.31-2.12-.96-.53-2.6-1.12-4.92-1.78v-3.71h70.75Z"/>
      </g>
    </g>
  </g>
</svg>