<?xml version="1.0" encoding="UTF-8" standalone="no"?>
<!DOCTYPE svg PUBLIC "-//W3C//DTD SVG 1.1//EN" "http://www.w3.org/Graphics/SVG/1.1/DTD/svg11.dtd">
<svg width="100%" height="100%" viewBox="0 0 1402 496" version="1.1" xmlns="http://www.w3.org/2000/svg" xmlns:xlink="http://www.w3.org/1999/xlink" xml:space="preserve" xmlns:serif="http://www.serif.com/" style="fill-rule:evenodd;clip-rule:evenodd;stroke-linejoin:round;stroke-miterlimit:2;">
    <g>
        <path d="M186.46,450.583C190.033,451.08 193.623,450.845 197.142,449.497C202.417,447.478 205.658,442.948 209.432,438.947C223.365,424.179 237.624,409.711 251.095,394.512C258.347,386.328 264.261,376.979 269.402,367.552C274.944,357.391 274.434,346.754 267.906,336.649C262.636,328.492 258.89,319.813 260.354,310.208C261.285,304.093 263.296,298.11 265.133,290.838C287.174,308.975 284.638,329.967 278.66,351.583C279.258,351.74 279.856,351.898 280.454,352.055C283.665,346.129 287.009,340.257 290.06,334.265C296.893,320.842 298.49,307.119 293.599,292.758C288.885,278.913 299.691,259.547 316.604,250.636C322.406,267.672 326.214,284.004 312.239,299.684C308.155,304.266 305.724,310.228 303.419,315.849C299.736,324.831 296.783,334.054 293.544,343.182C293.136,344.333 292.862,345.523 293.796,347.489C297.092,344.287 300.906,341.398 303.594,337.827C314.907,322.802 330.772,315.241 351.284,313.609C345.77,329.503 337.998,343.04 318.536,347.44C314.366,348.382 309.935,348.363 305.649,348.933C297.43,350.026 290.853,353.654 286.319,359.89C277.651,371.811 269.163,383.838 261.122,396.869C265.766,393.875 270.702,391.182 274.993,387.826C284.227,380.601 293.287,372.96 305.866,371.137C314.9,369.828 324.168,369.812 333.331,369.22C333.748,369.92 334.164,370.62 334.581,371.32C332.792,374.014 331.334,376.949 329.157,379.361C318.094,391.621 303.562,398.349 286.079,398.178C269.577,398.016 256.265,403.378 245.092,413.693C238.063,420.182 231.407,426.997 225.079,434.43C248.876,419.835 273.445,410.642 302.279,421.552C294.306,432.716 274.298,440.885 260.232,437.784C243.855,434.173 230.501,438.618 218.826,448.453C202.532,462.18 189.858,467.238 186.883,487.038C186.444,489.953 185.892,492.855 185.351,496L173.999,496C172.492,487.439 171.419,478.62 169.308,470.006C166.436,458.289 168.979,459.759 158.744,451.935C146.707,442.734 132.809,444.052 118.657,446.228C99.919,449.11 83.681,444.611 69.393,432.082C69.729,432.377 78.75,428.642 79.907,428.345C83.496,427.422 87.166,426.834 90.863,426.583C98.209,426.085 105.568,426.955 112.724,428.61C126.672,431.834 139.3,438.548 153.25,441.36C152.399,441.189 119.345,420.265 111.254,415.074C100.01,407.86 86.96,406.214 73.402,406.781C53.438,407.616 39.759,398.487 29.483,384.129C28.948,383.381 28.552,382.554 27.95,381.522C50.056,376.595 68.609,381.578 84.583,395.345C89.771,399.816 95.475,403.675 103.179,404.57C93.075,393.495 83.438,382.604 73.391,372.027C65.971,364.215 55.864,360.547 44.715,360.988C29.116,361.604 4.773,346.234 0,329.539C13.191,329.679 26.45,329.658 37.206,336.959C47.278,343.796 56.053,352.172 65.674,360.098C59.522,348.161 53.828,336.606 47.579,325.298C45.709,321.913 42.858,318.5 39.476,316.332C23.944,306.379 20.027,292.578 22.018,276.587C22.357,273.865 22.985,271.172 23.566,267.988C40.669,276.343 51.921,288.846 52.345,305.775C52.818,324.717 62.088,339.859 72.114,355.198C73.969,358.036 76.219,360.666 79.192,363.021C76.968,356.381 74.357,349.823 72.6,343.085C68.956,329.115 73.622,314.428 84.861,303.235C93.371,316.782 96.504,330.663 90.97,345.838C87.391,355.651 83.144,365.891 89.868,375.892C95.291,383.959 100.926,392.094 107.818,399.132C115.705,407.187 125.086,414.064 133.818,421.453C134.206,421.722 134.596,421.988 134.986,422.254C143.337,427.959 151.84,433.462 160.531,438.632C168.082,443.124 177.219,449.3 186.46,450.583Z" style="fill:url(#_Linear1);"/>
        <path d="M161.488,258.134L159.632,260.479C160.477,259.724 161.13,258.94 161.488,258.134Z" style="fill:url(#_Linear2);"/>
        <path d="M221.655,93.731C223.836,94.125 225.752,95.993 227.779,97.246C227.733,97.887 227.688,98.528 227.642,99.169C225.851,100.155 223.632,102.318 222.365,101.858C220.357,101.129 218.985,98.646 217.344,96.905C218.795,95.766 220.448,93.514 221.655,93.731ZM238.616,175.626C232.712,166.322 225.675,157.61 220.813,147.806C215.339,136.768 218.817,125.43 228.789,119.754C234.23,116.658 240.792,114.877 247.055,114.032C256.815,112.716 266.44,114.663 276.178,119.133C271.422,105.103 261.819,98.372 248.64,95.791C247.033,95.476 244.794,94.528 244.245,93.266C236.77,76.074 217.999,68.707 199.751,72.19C192.695,73.537 185.611,74.956 178.473,75.609C162.088,77.108 147.368,72.445 133.672,61.614C139.253,79.947 148.608,93.062 168.145,96.249C159.075,114.229 162.417,131.454 169.396,148.841C174.526,161.62 179.581,174.57 182.891,187.886C184.819,195.643 183.242,204.272 183.242,212.508C181.347,206.4 180.5,200.21 178.821,194.256C173.826,176.538 162.399,163.068 149.404,150.668C133.344,135.343 116.137,121.106 103.273,102.712C92.257,86.963 85.33,70.019 86.155,50.223C86.904,32.246 90.764,15.502 102.102,0.478C81.43,8.227 64.233,25.864 58.169,47.178C50.041,75.742 53.601,102.564 72.749,126.341C45.703,108.01 31.222,83.28 34.293,48.382C20.333,66.35 13.619,85.221 16.857,106.394C20.929,133.025 36.324,152.209 59.634,165.052C66.756,168.976 74.499,171.773 82.756,175.441C49,170.697 20.847,157.755 1.115,129.134C-1.77,145.16 0.924,159.659 9.418,172.93C21.078,191.149 38.436,201.814 58.576,207.925C69.243,211.162 80.455,212.601 90.967,214.758C79.322,218.995 66.535,220.212 53.493,219.779C40.109,219.335 27.832,215.546 15.859,206.879C26.472,227.039 42.194,239.158 62.018,246.368C81.857,253.584 101.823,253.383 122.933,245.953C111.253,257.713 98.558,264.739 83.776,268.332C85.062,268.019 88.966,270.214 90.356,270.63C92.737,271.342 95.152,271.939 97.592,272.41C102.524,273.364 107.548,273.802 112.569,273.752C122.567,273.653 132.438,271.601 141.925,268.538C141.925,268.538 154.48,265.082 159.632,260.479L161.488,258.134C161.13,258.94 160.477,259.724 159.632,260.479L150.314,272.255C143.366,278.962 136.776,286.165 131.85,294.518C124.708,306.629 121.385,321.801 126.453,334.916C130.434,345.217 139.559,353.381 150.238,356.195C143.745,341.557 141.573,324.058 147.732,309.276C156.718,287.707 174.874,272.587 181.198,266.357C186.6,261.037 190.776,254.518 193.717,247.548C194.365,246.012 194.953,244.451 195.48,242.87C198.411,234.079 199.61,224.813 199.887,215.579C200.027,210.92 199.883,206.275 199.707,201.62C199.612,199.1 199.683,197.72 200.553,197.514C201.162,197.37 202.163,197.803 203.772,198.823C214.634,205.711 223.578,215.302 229.542,226.707C237.991,242.867 242.078,265.048 235.404,282.601C234.715,284.413 233.852,286.774 232.435,288.167C242.761,278.018 250.786,266.452 256.04,252.712C262.532,235.732 262.739,218.558 254.712,202.107C250.2,192.862 244.153,184.352 238.616,175.626Z" style="fill:url(#_Linear3);"/>
        <path d="M222.561,309.29C224.01,306.204 225.964,303.471 228.337,301.03C230.78,298.519 233.537,296.384 236.334,294.296C239.706,291.779 243.116,289.31 246.15,286.372C254.812,277.982 260.6,267.922 263.62,256.259C264.586,252.527 265.17,248.732 265.513,244.835C265.632,245.146 265.769,245.45 265.867,245.768C267.257,250.295 267.995,254.929 268.145,259.663C268.337,265.688 267.561,271.57 265.589,277.276C262.021,287.603 255.113,294.778 245.081,299.014C242.262,300.204 239.334,301.037 236.39,301.835C233.894,302.512 231.438,303.313 229.097,304.428C226.603,305.615 224.345,307.119 222.561,309.29Z" style="fill:url(#_Linear4);"/>
        <path d="M59.9,279.745C60.734,280.219 61.568,280.695 62.403,281.166C67.177,283.859 72.169,286.046 77.426,287.618C95.796,293.112 113.172,290.749 129.612,281.019C130.412,280.544 131.187,280.023 131.976,279.527C131.994,279.515 132.039,279.545 132.128,279.574C131.968,281.084 131.357,282.442 130.64,283.759C128.723,287.282 125.9,289.972 122.663,292.245C115.795,297.071 108.098,299.305 99.746,299.328C90.774,299.353 82.629,296.593 75.183,291.712C71.759,289.468 68.417,287.091 65.122,284.661C63.481,283.45 62.025,281.988 60.495,280.627C60.239,280.399 60.036,280.111 59.808,279.851C59.839,279.816 59.869,279.781 59.9,279.745Z" style="fill:url(#_Linear5);"/>
        <path d="M256.002,345.172C255.893,345.839 255.785,346.506 255.674,347.172C255.04,350.98 254.071,354.717 252.696,358.369C249.842,365.949 245.44,372.923 239.426,378.39C233.667,383.625 223.407,385.814 225.257,395.538C225.632,397.508 226.889,399.626 228.888,399.794C230.611,399.939 232.059,398.59 233.228,397.316C242.673,387.024 254.086,372.924 255.599,358.661C255.901,355.809 256.105,352.952 256.265,350.102C256.345,348.682 256.226,347.272 256.187,345.859C256.182,345.622 256.125,345.393 256.091,345.16C256.061,345.164 256.032,345.168 256.002,345.172Z" style="fill:url(#_Linear6);"/>
        <path d="M250.884,326.208C249.803,319.047 247.673,312.208 244.552,305.676C244.474,305.513 244.371,305.362 244.221,305.106C244.133,305.442 244.064,305.649 244.024,305.862C242.775,312.6 240.009,318.652 235.799,324.048C232.784,327.911 229.066,330.872 224.537,332.787C221.697,333.987 218.738,334.564 215.677,334.203C211.936,333.763 208.919,331.971 206.718,328.883C204.957,326.414 204.143,323.6 203.935,320.62C203.625,316.175 204.511,311.945 206.473,307.945C207.725,305.392 209.255,303.006 210.988,300.759C213.041,298.098 215.152,295.481 217.252,292.856C220.122,289.267 222.763,285.532 224.722,281.351C225.987,278.65 226.985,275.882 227.76,273.057C228.737,269.495 229.353,265.842 229.611,262.094C229.944,257.272 229.683,252.486 228.865,247.733C227.807,241.592 225.827,235.744 223.112,230.141C219.335,222.349 214.346,215.403 208.413,209.121C207.198,207.835 205.913,206.615 204.564,205.269C204.617,205.504 204.634,205.61 204.665,205.712C206.231,210.83 207.208,216.055 207.549,221.399C207.825,225.736 207.761,230.065 207.278,234.382C206.787,238.777 205.925,243.102 204.653,247.34C202.017,256.13 198.024,264.107 192.512,271.152C190.444,273.794 188.169,276.309 185.661,278.68C182.373,281.79 178.906,284.711 175.492,287.686C172.14,290.608 168.789,293.53 165.774,296.81C162.465,300.409 159.612,304.325 157.555,308.784C156.017,312.12 155.048,315.609 154.843,319.286C154.688,322.075 154.999,324.833 155.556,327.565C156.235,330.888 157.257,334.116 158.248,337.354C159.459,341.31 160.641,345.272 161.043,349.418C161.416,353.259 161.072,357.015 159.782,360.667C158.36,364.69 155.835,367.719 151.835,369.373C147.851,371.021 143.749,371.155 139.594,370.155C133.766,368.754 129.118,365.583 125.616,360.727C123.217,357.401 121.603,353.692 120.403,349.799C118.617,344.002 117.421,338.077 116.701,332.054C116.175,327.654 116.029,323.252 116.537,318.836C116.959,315.172 117.828,311.63 119.281,308.237C119.369,308.031 119.44,307.817 119.518,307.607C119.227,307.796 119.028,308.023 118.83,308.251C115.814,311.728 113.104,315.406 111.207,319.634C102.755,338.48 104.534,361.183 114.603,379.079C129.506,405.564 156.257,423.665 185.908,429.363C197.72,431.633 209.445,424.109 217.267,415.949C222.234,410.767 222.313,409.108 219.376,403.043C216.671,397.455 215.972,391.841 219.189,386.224C220.173,384.507 221.329,382.912 222.606,381.403C224.622,379.02 226.894,376.896 229.245,374.853C232.139,372.338 235.076,369.871 237.925,367.306C241.909,363.719 245.14,359.548 247.421,354.664C250.368,348.352 251.523,341.667 251.532,334.759C251.536,331.899 251.311,329.042 250.884,326.208Z" style="fill:url(#_Linear7);"/>
        <path d="M414.523,304.5L414.523,329.965L422.3,329.965C425.26,329.965 429.801,329.896 435.032,326.936L435.032,334.231C429.801,331.341 425.26,331.203 422.3,331.203L414.523,331.203L414.523,351.23L408.879,351.23L408.879,303.193L445.768,303.193L445.768,309.662C440.606,304.982 436.064,304.5 430.902,304.5L414.523,304.5Z" style="fill:#ffffff;fill-rule:nonzero;"/>
        <rect x="456.774" y="303.193" width="5.644" height="48.037" style="fill:#ffffff;fill-rule:nonzero;"/>
        <path d="M479.964,308.285L479.964,336.296C479.964,341.458 480.445,346 485.125,351.23L478.45,351.23L478.45,306.565L475.352,303.193L483.13,303.193L517.541,340.701L517.541,318.127C517.541,312.966 517.057,308.423 512.379,303.193L519.055,303.193L519.055,351.23L479.964,308.285Z" style="fill:#ffffff;fill-rule:nonzero;"/>
        <path d="M559.035,334.231L548.848,311.658L538.8,334.231L559.035,334.231ZM573.211,351.23L566.742,351.23L559.653,335.539L538.182,335.539L537.837,336.296C535.566,341.389 535.015,346 537.768,351.23L529.991,351.23L548.092,310.007L544.994,303.193L551.051,303.193L573.211,351.23Z" style="fill:#ffffff;fill-rule:nonzero;"/>
        <path d="M585.527,308.285L585.527,336.296C585.527,341.458 586.009,346 590.688,351.23L584.013,351.23L584.013,306.565L580.915,303.193L588.693,303.193L623.104,340.701L623.104,318.127C623.104,312.966 622.622,308.423 617.942,303.193L624.618,303.193L624.618,351.23L585.527,308.285Z" style="fill:#ffffff;fill-rule:nonzero;"/>
        <path d="M665.905,348.546C673.819,348.546 681.872,344.693 686.346,337.191C683.867,346.413 673.063,352.056 662.326,352.056C650.076,352.056 637.826,344.761 637.826,327.212C637.826,312.622 649.25,302.367 664.529,302.367C671.893,302.367 679.463,303.193 683.454,304.5L683.454,312.622C681.183,308.629 673.613,303.605 664.529,303.605C652.141,303.605 644.088,313.792 644.088,325.491C644.088,341.045 654.825,348.546 665.905,348.546Z" style="fill:#ffffff;fill-rule:nonzero;"/>
        <rect x="698.518" y="303.193" width="5.644" height="48.037" style="fill:#ffffff;fill-rule:nonzero;"/>
        <path d="M744.076,334.231L733.89,311.658L723.842,334.231L744.076,334.231ZM758.253,351.23L751.784,351.23L744.695,335.539L723.223,335.539L722.879,336.296C720.607,341.389 720.057,346 722.81,351.23L715.033,351.23L733.134,310.007L730.036,303.193L736.093,303.193L758.253,351.23Z" style="fill:#ffffff;fill-rule:nonzero;"/>
        <path d="M806.838,344.761L806.838,351.23L769.054,351.23L769.054,303.193L775.523,303.193L775.523,349.923L791.972,349.923C797.065,349.923 801.607,349.441 806.838,344.761Z" style="fill:#ffffff;fill-rule:nonzero;"/>
        <path d="M873.105,348.546C881.019,348.546 889.071,344.693 893.545,337.191C891.067,346.413 880.263,352.056 869.526,352.056C857.276,352.056 845.026,344.761 845.026,327.212C845.026,312.622 856.45,302.367 871.729,302.367C879.093,302.367 886.663,303.193 890.655,304.5L890.655,312.622C888.383,308.629 880.813,303.605 871.729,303.605C859.34,303.605 851.288,313.792 851.288,325.491C851.288,341.045 862.025,348.546 873.105,348.546Z" style="fill:#ffffff;fill-rule:nonzero;"/>
        <path d="M951.554,327.212C951.554,315.031 943.089,303.605 930.219,303.605C917.35,303.605 908.885,315.031 908.885,327.212C908.885,339.394 917.35,350.818 930.219,350.818C943.089,350.818 951.554,339.394 951.554,327.212ZM957.817,327.212C957.817,341.802 945.567,352.125 930.219,352.125C914.872,352.125 902.622,341.802 902.622,327.212C902.622,312.622 914.872,302.367 930.219,302.367C945.567,302.367 957.817,312.622 957.817,327.212Z" style="fill:#ffffff;fill-rule:nonzero;"/>
        <path d="M972.677,308.285L972.677,336.296C972.677,341.458 973.16,346 977.84,351.23L971.164,351.23L971.164,306.565L968.066,303.193L975.844,303.193L1010.25,340.701L1010.25,318.127C1010.25,312.966 1009.77,308.423 1005.09,303.193L1011.77,303.193L1011.77,351.23L972.677,308.285Z" style="fill:#ffffff;fill-rule:nonzero;"/>
        <path d="M1062.21,339.049C1062.21,348.821 1051.54,352.331 1040.53,352.331C1034.89,352.331 1029.24,351.437 1024.77,349.991L1024.77,341.871C1027.939,347.308 1035.99,350.611 1043.209,350.611C1050.16,350.611 1056.36,347.514 1056.36,340.356C1056.36,327.968 1026.079,329.07 1026.079,315.443C1026.079,305.67 1035.569,302.16 1045.829,302.16C1050.99,302.16 1056.43,303.055 1060.9,304.5L1060.9,312.622C1057.67,307.047 1050.1,303.537 1043.42,303.537C1037.23,303.537 1031.93,306.634 1031.93,314.136C1031.93,324.941 1062.21,324.803 1062.21,339.049Z" style="fill:#ffffff;fill-rule:nonzero;"/>
        <path d="M1115.13,303.193L1115.13,330.377C1115.13,344.968 1105.15,352.056 1095.03,352.056C1084.84,352.056 1074.52,344.761 1074.52,330.377L1074.52,303.193L1080.16,303.193L1080.16,330.377C1080.16,342.696 1088.63,349.098 1097.03,349.098C1105.22,349.098 1113.41,342.904 1113.41,330.377L1113.41,318.127C1113.41,312.966 1112.93,308.423 1108.24,303.193L1115.13,303.193Z" style="fill:#ffffff;fill-rule:nonzero;"/>
        <path d="M1167.5,344.761L1167.5,351.23L1129.71,351.23L1129.71,303.193L1136.18,303.193L1136.18,349.923L1152.63,349.923C1157.72,349.923 1162.27,349.441 1167.5,344.761Z" style="fill:#ffffff;fill-rule:nonzero;"/>
        <path d="M1213.46,303.193L1213.46,309.662C1208.3,304.982 1203.76,304.5 1198.6,304.5L1191.65,304.5L1191.65,351.23L1186.07,351.23L1186.07,304.5L1179.12,304.5C1174.03,304.5 1169.49,304.982 1164.26,309.662L1164.26,303.193L1213.46,303.193Z" style="fill:#ffffff;fill-rule:nonzero;"/>
        <rect x="1224.47" y="303.193" width="5.64" height="48.037" style="fill:#ffffff;fill-rule:nonzero;"/>
        <path d="M1247.66,308.285L1247.66,336.296C1247.66,341.458 1248.14,346 1252.82,351.23L1246.15,351.23L1246.15,306.565L1243.05,303.193L1250.83,303.193L1285.24,340.701L1285.24,318.127C1285.24,312.966 1284.75,308.423 1280.07,303.193L1286.75,303.193L1286.75,351.23L1247.66,308.285Z" style="fill:#ffffff;fill-rule:nonzero;"/>
        <path d="M1347.38,326.661L1347.38,352.125L1342.15,343.866C1339.46,349.098 1332.3,352.194 1324.94,352.194C1291.01,352.194 1291.56,302.367 1326.59,302.367C1333.96,302.367 1341.53,303.193 1345.52,304.5L1345.52,312.622C1343.18,308.629 1335.68,303.605 1326.59,303.605C1299.61,303.605 1298.79,349.854 1325.77,349.854C1343.59,349.854 1345.73,333.268 1336.57,326.661L1347.38,326.661Z" style="fill:#ffffff;fill-rule:nonzero;"/>
        <path d="M436.63,145.541L436.63,171.861L428.089,171.861C427.217,169.015 426.316,166.516 425.387,164.366C424.458,162.217 423.498,160.416 422.511,158.963C421.523,157.511 420.433,156.348 419.243,155.476C418.051,154.605 416.642,154.01 415.017,153.69C413.389,153.371 411.443,153.211 409.177,153.211L381.636,153.211L381.636,198.878L400.287,198.878C402.843,198.878 404.848,198.516 406.301,197.79C407.753,197.063 408.959,195.828 409.917,194.085C410.876,192.342 411.791,189.612 412.663,185.893L420.855,185.893L420.855,219.359L412.663,219.359C411.849,215.873 410.948,213.245 409.961,211.472C408.973,209.701 407.796,208.437 406.431,207.681C405.065,206.927 403.018,206.548 400.287,206.548L381.636,206.548L381.636,256.835L408.741,256.835C411.587,256.835 413.897,256.589 415.67,256.095C417.441,255.602 418.967,254.759 420.245,253.567C421.523,252.377 422.656,250.822 423.644,248.904C424.632,246.987 425.46,244.997 426.129,242.935C426.795,240.873 427.711,237.866 428.874,233.914L437.501,233.914L435.846,264.505L355.142,264.505L355.142,260.235C358.744,259.306 361.155,258.274 362.376,257.14C363.596,256.007 364.394,254.395 364.772,252.303C365.15,250.212 365.339,247.016 365.339,242.717L365.339,167.33C365.339,163.32 365.193,160.401 364.903,158.571C364.611,156.74 364.132,155.318 363.465,154.3C362.796,153.284 361.91,152.47 360.807,151.859C359.703,151.249 357.813,150.568 355.142,149.811L355.142,145.541L436.63,145.541Z" style="fill:#ffffff;fill-rule:nonzero;"/>
        <path d="M499.997,145.541L499.997,149.811C497.324,150.277 495.291,150.857 493.896,151.554C492.502,152.252 491.455,153.241 490.759,154.518C490.062,155.797 489.712,157.511 489.712,159.659C489.712,161.635 489.944,163.771 490.41,166.066C490.874,168.361 491.543,170.932 492.414,173.778L512.807,244.895L537.821,173.256C538.17,172.153 538.519,170.99 538.867,169.769C539.215,168.549 539.521,167.359 539.782,166.197C540.043,165.035 540.218,164.018 540.305,163.146C540.393,162.275 540.436,161.461 540.436,160.706C540.436,157.219 539.636,154.679 538.039,153.08C536.441,151.482 533.725,150.392 529.89,149.811L529.89,145.541L566.495,145.541L566.495,149.811C564.111,150.392 562.194,151.236 560.743,152.339C559.289,153.444 557.851,155.215 556.429,157.655C555.004,160.095 553.276,163.989 551.243,169.333L515.073,265.9L503.657,265.9L474.286,168.724C472.718,163.437 471.352,159.675 470.19,157.437C469.027,155.201 467.75,153.516 466.355,152.383C464.962,151.249 463.044,150.392 460.604,149.811L460.604,145.541L499.997,145.541Z" style="fill:#ffffff;fill-rule:nonzero;"/>
        <path d="M669.864,145.541L669.864,171.861L661.323,171.861C660.451,169.015 659.55,166.516 658.621,164.366C657.691,162.217 656.732,160.416 655.745,158.963C654.757,157.511 653.667,156.348 652.477,155.476C651.285,154.605 649.876,154.01 648.25,153.69C646.623,153.371 644.677,153.211 642.411,153.211L614.87,153.211L614.87,198.878L633.521,198.878C636.077,198.878 638.081,198.516 639.535,197.79C640.986,197.063 642.192,195.828 643.151,194.085C644.11,192.342 645.025,189.612 645.897,185.893L654.089,185.893L654.089,219.359L645.897,219.359C645.083,215.873 644.182,213.245 643.195,211.472C642.207,209.701 641.03,208.437 639.665,207.681C638.299,206.927 636.252,206.548 633.521,206.548L614.87,206.548L614.87,256.835L641.975,256.835C644.821,256.835 647.131,256.589 648.904,256.095C650.675,255.602 652.2,254.759 653.479,253.567C654.757,252.377 655.89,250.822 656.878,248.904C657.866,246.987 658.693,244.997 659.362,242.935C660.029,240.873 660.945,237.866 662.107,233.914L670.735,233.914L669.08,264.505L588.375,264.505L588.375,260.235C591.978,259.306 594.389,258.274 595.609,257.14C596.83,256.007 597.628,254.395 598.006,252.303C598.383,250.212 598.573,247.016 598.573,242.717L598.573,167.33C598.573,163.32 598.427,160.401 598.137,158.571C597.845,156.74 597.366,155.318 596.699,154.3C596.03,153.284 595.144,152.47 594.041,151.859C592.937,151.249 591.047,150.568 588.375,149.811L588.375,145.541L669.864,145.541Z" style="fill:#ffffff;fill-rule:nonzero;"/>
        <path d="M729.047,153.559L729.047,205.328L738.896,205.328C743.951,205.328 748.046,204.966 751.184,204.238C754.322,203.513 757.226,202.133 759.899,200.099C762.571,198.066 764.707,195.233 766.305,191.602C767.902,187.971 768.702,183.511 768.702,178.223C768.702,172.704 767.757,168.114 765.87,164.454C763.98,160.793 761.12,158.004 757.285,156.087C753.451,154.169 748.278,153.211 741.772,153.211C736.542,153.211 732.301,153.327 729.047,153.559ZM729.047,212.823L729.047,242.455C729.047,246.638 729.206,249.675 729.527,251.562C729.845,253.452 730.325,254.874 730.965,255.833C731.603,256.792 732.475,257.576 733.579,258.186C734.682,258.796 736.571,259.481 739.244,260.235L739.244,264.505L702.465,264.505L702.465,260.235C706.068,259.306 708.479,258.274 709.699,257.14C710.92,256.007 711.718,254.395 712.096,252.303C712.473,250.212 712.663,247.016 712.663,242.717L712.663,167.33C712.663,163.32 712.516,160.401 712.227,158.571C711.935,156.74 711.456,155.318 710.789,154.3C710.12,153.284 709.233,152.47 708.13,151.859C707.026,151.249 705.137,150.568 702.465,149.811L702.465,145.541L745.606,145.541C759.202,145.541 769.369,148.011 776.11,152.949C782.849,157.888 786.22,165.558 786.22,175.957C786.22,183.918 784.026,190.686 779.639,196.264C775.252,201.842 768.672,206.2 759.899,209.337L759.899,210.035C763.443,211.487 766.48,213.564 769.007,216.266C771.534,218.967 774.337,223.166 777.417,228.859L785.261,243.152C787.527,247.336 789.473,250.532 791.101,252.74C792.726,254.947 794.382,256.633 796.068,257.793C797.752,258.957 799.99,259.77 802.778,260.235L802.778,264.505L778.637,264.505C776.428,261.426 774.337,258.114 772.363,254.569C770.387,251.026 768.44,247.423 766.523,243.762L758.854,229.207C756.529,224.794 754.627,221.538 753.145,219.447C751.663,217.355 750.297,215.888 749.049,215.045C747.799,214.204 746.463,213.623 745.04,213.302C743.616,212.984 741.48,212.823 738.634,212.823L729.047,212.823Z" style="fill:#ffffff;fill-rule:nonzero;"/>
        <path d="M904.23,145.541L904.23,171.861L895.689,171.861C894.411,167.911 893.176,164.714 891.986,162.275C890.795,159.835 889.545,157.975 888.238,156.697C886.931,155.42 885.406,154.518 883.662,153.995C881.92,153.471 879.623,153.211 876.778,153.211L851.241,153.211L851.241,200.621L869.195,200.621C871.752,200.621 873.756,200.201 875.209,199.358C876.66,198.516 877.866,197.107 878.825,195.131C879.784,193.156 880.699,190.106 881.571,185.98L889.764,185.98L889.764,222.759L881.571,222.759C880.699,218.808 879.769,215.83 878.782,213.826C877.794,211.821 876.617,210.397 875.252,209.555C873.886,208.713 871.867,208.291 869.195,208.291L851.241,208.291L851.241,242.455C851.241,245.941 851.445,248.73 851.851,250.822C852.257,252.914 852.925,254.569 853.857,255.79C854.785,257.011 856.034,257.925 857.603,258.535C859.172,259.145 861.118,259.713 863.444,260.235L863.444,264.505L824.747,264.505L824.747,260.235C828.349,259.306 830.761,258.274 831.982,257.14C833.202,256.007 834,254.395 834.377,252.303C834.754,250.212 834.944,247.016 834.944,242.717L834.944,167.33C834.944,163.32 834.798,160.401 834.509,158.571C834.216,156.74 833.738,155.318 833.07,154.3C832.402,153.284 831.516,152.47 830.413,151.859C829.308,151.249 827.419,150.568 824.747,149.811L824.747,145.541L904.23,145.541Z" style="fill:#ffffff;fill-rule:nonzero;"/>
        <path d="M958.446,256.486L981.28,256.486C983.777,256.486 985.87,256.342 987.556,256.051C989.24,255.761 990.677,255.31 991.869,254.7C993.058,254.09 994.134,253.249 995.093,252.173C996.052,251.098 996.967,249.688 997.839,247.945C998.711,246.202 999.538,244.011 1000.32,241.366C1001.11,238.723 1002.08,234.757 1003.24,229.469L1012.05,229.469L1010.3,264.505L931.95,264.505L931.95,260.235C935.554,259.306 937.964,258.274 939.185,257.14C940.405,256.007 941.203,254.395 941.582,252.303C941.96,250.212 942.149,247.016 942.149,242.717L942.149,167.33C942.149,163.32 942.003,160.401 941.712,158.571C941.421,156.74 940.941,155.318 940.275,154.3C939.605,153.284 938.719,152.47 937.616,151.859C936.513,151.249 934.622,150.568 931.95,149.811L931.95,145.541L968.643,145.541L968.643,149.811C966.086,150.509 964.27,151.134 963.196,151.685C962.12,152.239 961.235,152.979 960.537,153.908C959.84,154.837 959.318,156.261 958.97,158.178C958.619,160.095 958.446,163.146 958.446,167.33L958.446,256.486Z" style="fill:#ffffff;fill-rule:nonzero;"/>
        <path d="M1064.52,217.442L1100.95,217.442L1084.39,161.228L1064.52,217.442ZM1097.98,264.505L1097.98,260.235C1100.89,259.654 1103.05,259.015 1104.48,258.317C1105.9,257.619 1106.96,256.647 1107.66,255.397C1108.36,254.149 1108.7,252.478 1108.7,250.386C1108.7,248.411 1108.47,246.276 1108.01,243.98C1107.54,241.685 1106.87,239.114 1106,236.267L1102.78,225.024L1062.16,225.024L1059.2,233.566C1057.69,237.866 1056.7,241.119 1056.24,243.326C1055.77,245.535 1055.54,247.54 1055.54,249.34C1055.54,252.826 1056.43,255.384 1058.2,257.011C1059.97,258.637 1062.69,259.713 1066.35,260.235L1066.35,264.505L1029.13,264.505L1029.13,260.235C1032.39,259.713 1035.22,257.825 1037.63,254.569C1040.04,251.316 1042.38,246.668 1044.65,240.625L1080.99,144.147L1094.76,144.147L1124.39,241.322C1125.79,245.854 1127.02,249.311 1128.09,251.693C1129.17,254.076 1130.46,255.935 1131.97,257.271C1133.48,258.608 1135.55,259.595 1138.16,260.235L1138.16,264.505L1097.98,264.505Z" style="fill:#ffffff;fill-rule:nonzero;"/>
        <path d="M1286.24,149.811C1283.68,150.451 1281.84,151.09 1280.7,151.728C1279.57,152.369 1278.67,153.167 1278,154.126C1277.34,155.085 1276.84,156.523 1276.52,158.44C1276.2,160.357 1276.04,163.32 1276.04,167.33L1276.04,242.717C1276.04,246.609 1276.17,249.457 1276.44,251.257C1276.7,253.059 1277.13,254.483 1277.74,255.528C1278.35,256.575 1279.25,257.446 1280.45,258.144C1281.63,258.84 1283.57,259.537 1286.24,260.235L1286.24,264.505L1249.9,264.505L1249.9,260.235C1253.21,259.421 1255.5,258.491 1256.78,257.446C1258.06,256.4 1258.93,254.861 1259.4,252.826C1259.86,250.793 1260.1,247.423 1260.1,242.717L1260.1,209.337C1260.1,200.565 1260.22,191.688 1260.49,182.712C1260.75,173.735 1261.05,167.59 1261.4,164.279L1259.92,164.279L1225.41,250.647L1215.39,250.647L1183.31,162.885L1181.83,162.885C1182.12,166.429 1182.4,172.849 1182.66,182.145C1182.92,191.442 1183.05,201.001 1183.05,210.819L1183.05,242.717C1183.05,246.609 1183.18,249.457 1183.44,251.257C1183.7,253.059 1184.14,254.483 1184.75,255.528C1185.36,256.575 1186.26,257.446 1187.45,258.144C1188.64,258.84 1190.57,259.537 1193.25,260.235L1193.25,264.505L1161.44,264.505L1161.44,260.235C1165.04,259.306 1167.45,258.274 1168.67,257.14C1169.89,256.007 1170.69,254.395 1171.07,252.303C1171.44,250.212 1171.63,247.016 1171.63,242.717L1171.63,167.33C1171.63,163.32 1171.49,160.401 1171.2,158.571C1170.91,156.74 1170.43,155.318 1169.76,154.3C1169.09,153.284 1168.21,152.47 1167.1,151.859C1166,151.249 1164.11,150.568 1161.44,149.811L1161.44,145.541L1192.55,145.541L1223.14,230.341L1256.78,145.541L1286.24,145.541L1286.24,149.811Z" style="fill:#ffffff;fill-rule:nonzero;"/>
        <path d="M1400.24,145.541L1400.24,171.861L1391.7,171.861C1390.83,169.015 1389.93,166.516 1389,164.366C1388.07,162.217 1387.11,160.416 1386.12,158.963C1385.14,157.511 1384.05,156.348 1382.85,155.476C1381.66,154.605 1380.26,154.01 1378.63,153.69C1377,153.371 1375.06,153.211 1372.79,153.211L1345.25,153.211L1345.25,198.878L1363.9,198.878C1366.45,198.878 1368.46,198.516 1369.91,197.79C1371.37,197.063 1372.57,195.828 1373.53,194.085C1374.49,192.342 1375.4,189.612 1376.28,185.893L1384.47,185.893L1384.47,219.359L1376.28,219.359C1375.46,215.873 1374.56,213.245 1373.57,211.472C1372.59,209.701 1371.41,208.437 1370.04,207.681C1368.68,206.927 1366.63,206.548 1363.9,206.548L1345.25,206.548L1345.25,256.835L1372.35,256.835C1375.2,256.835 1377.51,256.589 1379.28,256.095C1381.05,255.602 1382.58,254.759 1383.86,253.567C1385.14,252.377 1386.27,250.822 1387.26,248.904C1388.24,246.987 1389.07,244.997 1389.74,242.935C1390.41,240.873 1391.32,237.866 1392.49,233.914L1401.11,233.914L1399.46,264.505L1318.75,264.505L1318.75,260.235C1322.36,259.306 1324.77,258.274 1325.99,257.14C1327.21,256.007 1328.01,254.395 1328.39,252.303C1328.76,250.212 1328.95,247.016 1328.95,242.717L1328.95,167.33C1328.95,163.32 1328.81,160.401 1328.52,158.571C1328.22,156.74 1327.74,155.318 1327.08,154.3C1326.41,153.284 1325.52,152.47 1324.42,151.859C1323.32,151.249 1321.43,150.568 1318.75,149.811L1318.75,145.541L1400.24,145.541Z" style="fill:#ffffff;fill-rule:nonzero;"/>
    </g>
    <defs>
        <linearGradient id="_Linear1" x1="0" y1="0" x2="1" y2="0" gradientUnits="userSpaceOnUse" gradientTransform="matrix(216.398,216.398,-216.398,216.398,71.597195,219.958)"><stop offset="0" style="stop-color:rgb(244,225,112);stop-opacity:1"/><stop offset="0.67" style="stop-color:rgb(236,129,44);stop-opacity:1"/><stop offset="1" style="stop-color:rgb(234,100,36);stop-opacity:1"/></linearGradient>
        <linearGradient id="_Linear2" x1="0" y1="0" x2="1" y2="0" gradientUnits="userSpaceOnUse" gradientTransform="matrix(0,-2.3451,2.3451,0,160.56,260.479)"><stop offset="0" style="stop-color:rgb(244,225,112);stop-opacity:1"/><stop offset="0.33" style="stop-color:rgb(236,129,44);stop-opacity:1"/><stop offset="0.5" style="stop-color:rgb(234,100,36);stop-opacity:1"/><stop offset="0.67" style="stop-color:rgb(236,129,44);stop-opacity:1"/><stop offset="0.75" style="stop-color:rgb(234,100,36);stop-opacity:1"/><stop offset="0.92" style="stop-color:rgb(236,129,44);stop-opacity:1"/><stop offset="1" style="stop-color:rgb(234,100,36);stop-opacity:1"/></linearGradient>
        <linearGradient id="_Linear3" x1="0" y1="0" x2="1" y2="0" gradientUnits="userSpaceOnUse" gradientTransform="matrix(0,-355.717,355.717,0,138.089,356.195)"><stop offset="0" style="stop-color:rgb(244,225,112);stop-opacity:1"/><stop offset="0.67" style="stop-color:rgb(236,129,44);stop-opacity:1"/><stop offset="1" style="stop-color:rgb(234,100,36);stop-opacity:1"/></linearGradient>
        <linearGradient id="_Linear4" x1="0" y1="0" x2="1" y2="0" gradientUnits="userSpaceOnUse" gradientTransform="matrix(0,-64.455301,64.455301,0,245.367,309.29)"><stop offset="0" style="stop-color:rgb(244,225,112);stop-opacity:1"/><stop offset="0.67" style="stop-color:rgb(236,129,44);stop-opacity:1"/><stop offset="1" style="stop-color:rgb(234,100,36);stop-opacity:1"/></linearGradient>
        <linearGradient id="_Linear5" x1="0" y1="0" x2="1" y2="0" gradientUnits="userSpaceOnUse" gradientTransform="matrix(19.5351,-33.835699,33.835699,19.5351,85.883797,297.989)"><stop offset="0" style="stop-color:rgb(244,225,112);stop-opacity:1"/><stop offset="0.67" style="stop-color:rgb(236,129,44);stop-opacity:1"/><stop offset="1" style="stop-color:rgb(234,100,36);stop-opacity:1"/></linearGradient>
        <linearGradient id="_Linear6" x1="0" y1="0" x2="1" y2="0" gradientUnits="userSpaceOnUse" gradientTransform="matrix(0,-54.645,54.645,0,240.665,399.805)"><stop offset="0" style="stop-color:rgb(244,225,112);stop-opacity:1"/><stop offset="0.67" style="stop-color:rgb(236,129,44);stop-opacity:1"/><stop offset="1" style="stop-color:rgb(234,100,36);stop-opacity:1"/></linearGradient>
        <linearGradient id="_Linear7" x1="0" y1="0" x2="1" y2="0" gradientUnits="userSpaceOnUse" gradientTransform="matrix(134.448,-134.448,134.448,134.448,125.981,395.553)"><stop offset="0" style="stop-color:rgb(244,225,112);stop-opacity:1"/><stop offset="0.67" style="stop-color:rgb(236,129,44);stop-opacity:1"/><stop offset="1" style="stop-color:rgb(234,100,36);stop-opacity:1"/></linearGradient>
    </defs>
</svg>

