<?xml version="1.0" encoding="UTF-8"?>
<svg id="Layer_2" data-name="Layer 2" xmlns="http://www.w3.org/2000/svg" xmlns:xlink="http://www.w3.org/1999/xlink" viewBox="0 0 344.66 486.17">
  <defs>
    <style>
      .cls-1 {
        fill: url(#linear-gradient-2);
      }

      .cls-2 {
        fill: url(#linear-gradient-4);
      }

      .cls-3 {
        fill: url(#linear-gradient-3);
      }

      .cls-4 {
        fill: url(#linear-gradient-5);
      }

      .cls-5 {
        fill: url(#linear-gradient-8);
      }

      .cls-6 {
        fill: url(#linear-gradient-7);
      }

      .cls-7 {
        fill: url(#linear-gradient-9);
      }

      .cls-8 {
        fill: url(#linear-gradient-6);
      }

      .cls-9 {
        fill: url(#linear-gradient);
      }
    </style>
    <linearGradient id="linear-gradient" x1="70.25" y1="215.34" x2="282.56" y2="427.66" gradientUnits="userSpaceOnUse">
      <stop offset="0" stop-color="#f4e171"/>
      <stop offset=".25" stop-color="#f0b956"/>
      <stop offset=".59" stop-color="#ec8b35"/>
      <stop offset=".85" stop-color="#e96d21"/>
      <stop offset="1" stop-color="#e9631a"/>
    </linearGradient>
    <linearGradient id="linear-gradient-2" x1="157.53" y1="255.1" x2="157.53" y2="252.8" xlink:href="#linear-gradient"/>
    <linearGradient id="linear-gradient-3" x1="157.53" y1="255.1" x2="157.53" y2="252.8" xlink:href="#linear-gradient"/>
    <linearGradient id="linear-gradient-4" x1="157.53" y1="255.1" x2="157.53" y2="252.8" xlink:href="#linear-gradient"/>
    <linearGradient id="linear-gradient-5" x1="135.48" y1="349.01" x2="135.48" y2="0" xlink:href="#linear-gradient"/>
    <linearGradient id="linear-gradient-6" x1="240.74" y1="302.99" x2="240.74" y2="239.75" xlink:href="#linear-gradient"/>
    <linearGradient id="linear-gradient-7" x1="84.26" y1="291.9" x2="103.43" y2="258.7" xlink:href="#linear-gradient"/>
    <linearGradient id="linear-gradient-8" x1="236.12" y1="391.79" x2="236.12" y2="338.18" xlink:href="#linear-gradient"/>
    <linearGradient id="linear-gradient-9" x1="123.6" y1="387.62" x2="255.52" y2="255.71" xlink:href="#linear-gradient"/>
  </defs>
  <g id="Layer_1" data-name="Layer 1">
    <g>
      <path class="cls-9" d="M182.94,441.61c3.51.49,7.03.26,10.48-1.07,5.18-1.98,8.36-6.43,12.06-10.35,13.67-14.49,27.66-28.68,40.88-43.6,7.12-8.03,12.92-17.2,17.96-26.45,5.44-9.97,4.94-20.41-1.47-30.32-5.17-8-8.84-16.52-7.41-25.94.91-6,2.89-11.87,4.69-19.01,21.63,17.8,19.14,38.39,13.27,59.6.59.15,1.17.31,1.76.46,3.15-5.81,6.43-11.58,9.42-17.45,6.7-13.17,8.27-26.63,3.47-40.72-4.63-13.58,5.98-32.58,22.57-41.33,5.69,16.71,9.43,32.74-4.28,48.12-4.01,4.5-6.39,10.35-8.65,15.86-3.61,8.81-6.51,17.86-9.69,26.82-.4,1.13-.67,2.3.25,4.23,3.23-3.14,6.98-5.98,9.61-9.48,11.1-14.74,26.66-22.16,46.79-23.76-5.41,15.59-13.04,28.88-32.13,33.19-4.09.92-8.44.91-12.64,1.47-8.06,1.07-14.52,4.63-18.96,10.75-8.5,11.7-16.83,23.5-24.72,36.28,4.56-2.94,9.4-5.58,13.61-8.87,9.06-7.09,17.95-14.59,30.29-16.37,8.86-1.28,17.96-1.3,26.95-1.88.41.69.82,1.37,1.23,2.06-1.76,2.64-3.19,5.52-5.32,7.89-10.85,12.03-25.11,18.63-42.27,18.46-16.19-.16-29.25,5.1-40.21,15.22-6.9,6.37-13.43,13.05-19.64,20.35,23.35-14.32,47.45-23.34,75.74-12.64-7.82,10.95-27.45,18.97-41.25,15.93-16.07-3.54-29.17.82-40.63,10.47-15.99,13.47-28.42,18.43-31.34,37.86-.43,2.86-.97,5.71-1.5,8.79h-11.14c-1.48-8.4-2.53-17.05-4.6-25.5-2.82-11.5-.32-10.05-10.36-17.73-11.81-9.03-25.45-7.73-39.33-5.6-18.38,2.83-34.32-1.59-48.33-13.88.33.29,9.18-3.37,10.32-3.67,3.52-.91,7.12-1.48,10.75-1.73,7.21-.49,14.43.37,21.45,1.99,13.68,3.16,26.07,9.75,39.76,12.51-.84-.17-33.27-20.7-41.2-25.79-11.03-7.08-23.84-8.69-37.14-8.14-19.59.82-33.01-8.14-43.09-22.23-.52-.73-.91-1.55-1.5-2.56,21.69-4.83,39.89.05,55.56,13.56,5.09,4.39,10.69,8.17,18.24,9.05-9.91-10.87-19.37-21.55-29.23-31.93-7.28-7.66-17.2-11.26-28.13-10.83-15.31.6-39.19-14.48-43.87-30.86,12.94.14,25.95.12,36.5,7.28,9.88,6.71,18.49,14.93,27.93,22.7-6.04-11.71-11.62-23.05-17.75-34.14-1.84-3.32-4.63-6.67-7.95-8.8-15.24-9.77-19.08-23.31-17.13-39,.33-2.67.95-5.31,1.52-8.44,16.78,8.2,27.82,20.46,28.24,37.07.46,18.58,9.56,33.44,19.4,48.49,1.82,2.78,4.03,5.37,6.94,7.68-2.18-6.51-4.74-12.95-6.47-19.56-3.57-13.71,1-28.12,12.03-39.1,8.35,13.29,11.42,26.91,5.99,41.8-3.51,9.63-7.68,19.67-1.08,29.49,5.32,7.91,10.85,15.9,17.61,22.8,7.74,7.9,16.94,14.65,25.51,21.9.38.26.76.53,1.15.79,8.19,5.6,16.54,11,25.06,16.07,7.41,4.41,16.37,10.47,25.44,11.73Z"/>
      <path class="cls-1" d="M158.44,252.8l-1.82,2.3c.83-.74,1.47-1.51,1.82-2.3Z"/>
      <path class="cls-3" d="M158.44,252.8l-1.82,2.3c.83-.74,1.47-1.51,1.82-2.3Z"/>
      <path class="cls-2" d="M158.44,252.8l-1.82,2.3c.83-.74,1.47-1.51,1.82-2.3Z"/>
      <path class="cls-4" d="M234.11,171.84c-5.79-9.13-12.7-17.68-17.47-27.3-5.37-10.83-1.96-21.95,7.83-27.52,5.34-3.04,11.78-4.79,17.92-5.61,9.58-1.29,19.02.62,28.57,5-4.67-13.77-14.09-20.37-27.02-22.9-1.58-.31-3.77-1.24-4.31-2.48-7.33-16.87-25.75-24.1-43.65-20.68-6.92,1.32-13.87,2.71-20.88,3.35-16.08,1.47-30.52-3.1-43.96-13.73,5.48,17.99,14.65,30.86,33.82,33.98-8.9,17.64-5.62,34.54,1.23,51.6,5.03,12.54,9.99,25.24,13.24,38.31,1.89,7.61.34,16.08.34,24.16-1.86-5.99-2.69-12.07-4.34-17.91-4.9-17.38-16.11-30.6-28.86-42.77-15.76-15.04-32.64-29-45.26-47.05-10.81-15.45-17.6-32.08-16.79-51.5.74-17.64,4.52-34.07,15.65-48.81-20.28,7.6-37.15,24.91-43.1,45.82-7.97,28.03-4.48,54.34,14.31,77.67-26.54-17.99-40.74-42.25-37.73-76.49-13.7,17.63-20.28,36.14-17.11,56.92,4,26.13,19.1,44.95,41.97,57.55,6.99,3.85,14.58,6.59,22.69,10.19-33.12-4.65-60.74-17.35-80.1-45.43-2.83,15.72-.19,29.95,8.15,42.97,11.44,17.88,28.47,28.34,48.23,34.33,10.47,3.18,21.47,4.59,31.78,6.7-11.43,4.16-23.97,5.35-36.77,4.93-13.13-.44-25.18-4.15-36.92-12.66,10.41,19.78,25.84,31.67,45.29,38.74,19.47,7.08,39.05,6.88,59.77-.41-11.46,11.54-23.92,18.43-38.42,21.96,1.26-.31,5.09,1.85,6.46,2.25,2.34.7,4.71,1.28,7.1,1.75,4.84.94,9.77,1.37,14.69,1.32,9.81-.1,19.49-2.11,28.8-5.12,0,0,12.32-3.39,17.37-7.91l1.82-2.3c-.35.79-.99,1.56-1.82,2.3l-9.14,11.55c-6.82,6.58-13.28,13.65-18.12,21.84-7.01,11.88-10.27,26.77-5.3,39.64,3.91,10.11,12.86,18.12,23.34,20.88-6.37-14.36-8.5-31.53-2.46-46.03,8.82-21.16,26.63-36,32.84-42.11,5.3-5.22,9.4-11.62,12.28-18.45.64-1.51,1.21-3.04,1.73-4.59,2.88-8.62,4.05-17.72,4.32-26.78.14-4.57,0-9.13-.18-13.69-.09-2.47-.02-3.83.83-4.03.6-.14,1.58.28,3.16,1.28,10.66,6.76,19.43,16.17,25.28,27.36,8.29,15.85,12.3,37.62,5.75,54.84-.68,1.78-1.52,4.09-2.91,5.46,10.13-9.96,18.01-21.31,23.16-34.79,6.37-16.66,6.57-33.51-1.3-49.65-4.43-9.07-10.36-17.42-15.79-25.98ZM217.47,91.49c2.14.39,4.02,2.22,6.01,3.45-.04.63-.09,1.26-.13,1.89-1.76.97-3.93,3.09-5.18,2.64-1.97-.72-3.32-3.15-4.93-4.86,1.42-1.12,3.05-3.33,4.23-3.11Z"/>
      <path class="cls-8" d="M218.36,302.99c1.42-3.03,3.34-5.71,5.67-8.1,2.4-2.46,5.1-4.56,7.85-6.61,3.31-2.47,6.65-4.89,9.63-7.77,8.5-8.23,14.18-18.1,17.14-29.55.95-3.66,1.52-7.38,1.86-11.21.12.3.25.6.35.91,1.36,4.44,2.09,8.99,2.24,13.63.19,5.91-.57,11.68-2.51,17.28-3.5,10.13-10.28,17.17-20.12,21.33-2.77,1.17-5.64,1.98-8.53,2.77-2.45.66-4.86,1.45-7.16,2.54-2.45,1.16-4.66,2.64-6.41,4.77Z"/>
      <path class="cls-6" d="M58.77,274c.82.46,1.64.93,2.46,1.39,4.68,2.64,9.58,4.79,14.74,6.33,18.02,5.39,35.07,3.07,51.2-6.47.79-.47,1.55-.98,2.32-1.46.02-.01.06.02.15.05-.16,1.48-.76,2.81-1.46,4.11-1.88,3.46-4.65,6.1-7.83,8.33-6.74,4.73-14.29,6.93-22.48,6.95-8.8.02-16.79-2.68-24.1-7.47-3.36-2.2-6.64-4.53-9.87-6.92-1.61-1.19-3.04-2.62-4.54-3.96-.25-.22-.45-.51-.67-.76.03-.03.06-.07.09-.1Z"/>
      <path class="cls-5" d="M251.17,338.19c-.11.65-.21,1.31-.32,1.96-.62,3.74-1.57,7.4-2.92,10.99-2.8,7.44-7.12,14.28-13.02,19.64-5.65,5.14-15.72,7.28-13.9,16.82.37,1.93,1.6,4.01,3.56,4.18,1.69.14,3.11-1.18,4.26-2.43,9.27-10.1,20.46-23.93,21.95-37.93.3-2.8.5-5.6.65-8.4.08-1.39-.04-2.78-.08-4.16,0-.23-.06-.46-.1-.69-.03,0-.06,0-.09.01Z"/>
      <path class="cls-7" d="M246.15,319.58c-1.06-7.03-3.15-13.74-6.21-20.14-.08-.16-.18-.31-.32-.56-.09.33-.15.53-.19.74-1.23,6.61-3.94,12.55-8.07,17.84-2.96,3.79-6.61,6.69-11.05,8.57-2.79,1.18-5.69,1.74-8.69,1.39-3.67-.43-6.63-2.19-8.79-5.22-1.73-2.42-2.53-5.18-2.73-8.11-.3-4.36.56-8.51,2.49-12.44,1.23-2.5,2.73-4.85,4.43-7.05,2.01-2.61,4.09-5.18,6.15-7.75,2.82-3.52,5.41-7.19,7.33-11.29,1.24-2.65,2.22-5.37,2.98-8.14.96-3.49,1.56-7.08,1.82-10.76.33-4.73.07-9.43-.73-14.09-1.04-6.03-2.98-11.76-5.64-17.26-3.71-7.64-8.6-14.46-14.42-20.62-1.19-1.26-2.45-2.46-3.78-3.78.05.23.07.33.1.43,1.54,5.02,2.5,10.15,2.83,15.39.27,4.25.21,8.5-.27,12.74-.48,4.31-1.33,8.56-2.58,12.71-2.59,8.62-6.5,16.45-11.91,23.36-2.03,2.59-4.26,5.06-6.72,7.39-3.23,3.05-6.63,5.92-9.98,8.84-3.29,2.87-6.58,5.73-9.53,8.95-3.25,3.53-6.05,7.37-8.06,11.75-1.51,3.27-2.46,6.7-2.66,10.3-.15,2.74.15,5.44.7,8.12.67,3.26,1.67,6.43,2.64,9.6,1.19,3.88,2.35,7.77,2.74,11.84.37,3.77.03,7.45-1.24,11.04-1.39,3.95-3.87,6.92-7.8,8.54-3.91,1.62-7.93,1.75-12.01.77-5.72-1.38-10.28-4.49-13.71-9.25-2.35-3.26-3.94-6.9-5.11-10.72-1.75-5.69-2.93-11.5-3.63-17.41-.52-4.32-.66-8.64-.16-12.97.41-3.6,1.27-7.07,2.69-10.4.09-.2.16-.41.23-.62-.29.19-.48.41-.68.63-2.96,3.41-5.62,7.02-7.48,11.17-8.29,18.49-6.55,40.77,3.33,58.32,14.62,25.99,40.87,43.75,69.96,49.34,11.59,2.23,23.09-5.16,30.77-13.16,4.87-5.08,4.95-6.71,2.07-12.66-2.65-5.48-3.34-10.99-.18-16.5.97-1.68,2.1-3.25,3.35-4.73,1.98-2.34,4.21-4.42,6.51-6.43,2.84-2.47,5.72-4.89,8.52-7.4,3.91-3.52,7.08-7.61,9.32-12.4,2.89-6.19,4.03-12.75,4.03-19.53,0-2.81-.22-5.61-.64-8.39Z"/>
    </g>
  </g>
</svg>