<?xml version="1.0" encoding="UTF-8"?>
<svg id="Layer_3" data-name="Layer 3" xmlns="http://www.w3.org/2000/svg" viewBox="0 0 1863.64 394.94">
  <defs>
    <style>
      .cls-1 {
        fill: #fff;
      }

      .cls-2 {
        fill: none;
        stroke: #af0000;
        stroke-miterlimit: 10;
        stroke-width: 5.11px;
      }
    </style>
  </defs>
  <g id="Layer_1" data-name="Layer 1">
    <g>
      <path d="M1863.64,0C1349.54,6.36,806.65-5.28,292.37,3.73c-20.39,1.55-40.59,5.64-58.4,14.15-16.31,7.69-30.59,18.72-42.8,31.57C172.5,69.15,0,394.94,0,394.94c514.1-6.36,1056.98,5.28,1571.27-3.73,20.39-1.55,40.59-5.64,58.41-14.15,16.31-7.69,30.59-18.72,42.8-31.57C1691.14,325.79,1863.64,0,1863.64,0Z"/>
      <path class="cls-2" d="M1811.66,26.49c-485.42,5.51-998.02-4.57-1483.62,3.23-19.25,1.35-38.32,4.89-55.15,12.25-15.4,6.66-28.88,16.21-40.41,27.33-17.62,17.07-180.5,299.14-180.5,299.14,485.42-5.51,998.02,4.57,1483.62-3.23,19.25-1.35,38.32-4.89,55.15-12.25,15.4-6.66,28.88-16.21,40.41-27.33,17.62-17.07,180.5-299.14,180.5-299.14Z"/>
      <g>
        <g>
          <path class="cls-1" d="M935.4,255.36l-378.31.44c-3.01-6.21-6.05-12.43-9.14-18.64,26.74-8.88,49.7-33.17,56.24-61.36,3.6-15.51,6.78-30.9,10.14-46.46,7.7-35.64-14.75-57.35-50.71-57.35h-246.18c17.52,12.23,22.13,36.33,16.6,59.81-12.91,61.06-25.82,122.13-38.73,183.19h86.67c5.53-24.66,10.14-49.42,15.67-74.18h57.17c11.99,24.76,45.08,75.18,45.08,75.18l396.6.72,38.89-61.36ZM409.65,183.01c4.61-20.22,9.22-40.54,12.91-60.87h84.83c11.06,0,19.09,9.71,16.6,21.7-1.2,5.77-2.45,11.48-3.69,17.46-2.45,11.83-14.75,21.7-25.82,21.7h-84.83Z"/>
          <path class="cls-1" d="M614.7,227.88l277.35,1.42,38.89-61.36-291.88.44c-1.7,20.96-9.97,40.77-24.35,59.49Z"/>
          <path class="cls-1" d="M1246.17,279.43c-6.33,12.2-13.45,23.42-13.45,23.42-5.09,8.02-9.9,14.76-13.93,20.09h245.93c35.04,0,71.44-29.2,79.29-65.11.28-1.29.54-2.59.82-3.88,8.39-38.78,15.61-77.8,24.08-116.56,7.85-35.91-15.68-65.11-50.71-65.11h-332c-32.27,46.66-65.46,93.32-96.81,139.98-12.91-46.66-24.9-93.32-36.88-139.98-18.19,0-338.71-.18-426.58-.19,15.33,5.11,22.99,38.32,14.05,61.31l277.68.54h54.82s33.94,128.04,50.53,189.01h86.67c27.66-41.73,124.52-189.58,124.52-189.58,14.15,0,35.95,0,50.1,0-12.62,71.8-29.64,129.74-38.11,146.07ZM1479.46,151.79c-6.62,30.54-12.74,61.2-19.36,91.64-.62,2.86-1.8,5.59-3.4,8.09-5.07,7.97-14.44,13.61-24.26,13.61h-96.81c1.27-5.61,20.51-95.59,28.58-135.05h96.81c12.91,0,21.04,9.73,18.44,21.7Z"/>
        </g>
        <path class="cls-1" d="M1599.62,81.87v3.25h-6.29v16.42h-3.91v-16.42h-6.29v-3.25h16.49ZM1620.88,101.54l-.72-11.57c-.07-1.52-.07-3.4-.14-5.5h-.22c-.51,1.74-1.09,4.05-1.66,5.86l-3.55,10.92h-4.05l-3.55-11.21c-.36-1.52-.94-3.83-1.37-5.57h-.22c0,1.81-.07,3.69-.14,5.5l-.72,11.57h-3.76l1.45-19.67h5.86l3.4,9.62c.43,1.52.79,2.96,1.3,4.99h.07c.5-1.81.94-3.47,1.37-4.92l3.4-9.69h5.64l1.52,19.67h-3.9Z"/>
      </g>
    </g>
  </g>
</svg>