<?xml version="1.0" encoding="UTF-8"?>
<svg id="Layer_2" data-name="Layer 2" xmlns="http://www.w3.org/2000/svg" viewBox="0 0 407.47 232.26">
  <g id="Layer_1" data-name="Layer 1">
    <g>
      <path d="M347.07,9.29v3.09h-5.97v15.58h-3.71v-15.58h-5.97v-3.09h15.65ZM367.24,27.96l-.69-10.98c-.07-1.44-.07-3.23-.14-5.22h-.21c-.48,1.65-1.03,3.84-1.58,5.56l-3.36,10.36h-3.84l-3.36-10.64c-.34-1.44-.89-3.64-1.3-5.28h-.21c0,1.72-.07,3.5-.14,5.22l-.69,10.98h-3.57l1.37-18.67h5.56l3.23,9.13c.41,1.44.75,2.81,1.24,4.73h.07c.48-1.72.89-3.29,1.3-4.67l3.23-9.2h5.35l1.44,18.67h-3.71Z"/>
      <path d="M407.47,174.03l-159.04.42c-2.86-5.9-5.74-11.79-8.67-17.69,25.38-8.43,47.17-31.48,53.38-58.23,3.42-14.72,6.43-29.33,9.63-44.1,7.31-33.83-14-54.43-48.13-54.43H21c16.63,11.61,21,34.48,15.75,56.77C24.5,114.72,12.25,172.67,0,230.62h82.26c5.25-23.4,9.63-46.91,14.87-70.4h54.25c11.38,23.5,42.78,71.35,42.78,71.35l176.4.69,36.91-58.23ZM108.51,105.36c4.37-19.19,8.75-38.48,12.25-57.77h80.5c10.5,0,18.11,9.21,15.75,20.6-1.14,5.47-2.32,10.9-3.5,16.57-2.33,11.22-14,20.6-24.5,20.6h-80.5Z"/>
    </g>
  </g>
</svg>