<svg xmlns="http://www.w3.org/2000/svg" width="346" height="56" viewBox="0 0 346 56">
  <g fill="none" fill-rule="evenodd">
    <path fill="#155078" d="M41.675 55.07h-7.599L0 1.408h10.027l27.888 44.966L65.959 1.408h9.714zM83.527 1.408h8.147v52.8h-8.147z"/>
    <path fill="#1c1b19" d="M183.206 1.408h8.147v52.8h-8.147z"/>
    <path fill="#1c1b19" fill-rule="nonzero" d="M235.953 6.658c-15.198 0-26.791 7.05-26.791 21.15 0 14.179 11.593 21.152 26.791 21.152 15.118 0 26.634-6.894 26.634-21.152 0-14.1-11.516-21.15-26.634-21.15m0 48.961c-18.174 0-35.33-8.069-35.33-27.811C200.623 8.146 217.7 0 235.953 0c18.174 0 35.251 8.146 35.251 27.808 0 19.742-16.999 27.811-35.251 27.811"/>
    <path fill="#1c1b19" d="M345.488 55.462h-1.019L288.302 15.04v39.168h-8.069V.156h1.019l56.089 40.5V1.408h8.147z"/>
    <path fill="#155078" d="M102.024 1.84v6.972h42.929L99.052 54.639h10.997l51.433-51.546V1.84z"/>
    <path fill="#1c1b19" d="M173.718 54.639v-6.972h-42.929L176.69 1.84h-10.998L114.26 53.385v1.254z"/>
  </g>
</svg>
