<?xml version="1.0" encoding="UTF-8" standalone="no"?>
<!DOCTYPE svg PUBLIC "-//W3C//DTD SVG 1.1//EN" "http://www.w3.org/Graphics/SVG/1.1/DTD/svg11.dtd">
<svg width="100%" height="100%" viewBox="0 0 363 154" version="1.1" xmlns="http://www.w3.org/2000/svg" xmlns:xlink="http://www.w3.org/1999/xlink" xml:space="preserve" xmlns:serif="http://www.serif.com/" style="fill-rule:evenodd;clip-rule:evenodd;stroke-linejoin:round;stroke-miterlimit:2;">
    <g transform="matrix(1,0,0,1,-0.243826,-33.636002)">
        <g>
            <g transform="matrix(1,0,0,1,1.732182,0)">
                <path d="M37.194,33.636L60.311,33.636L84.747,123.658L85.063,124.764L174.689,34.042L197.082,34.042L79.294,155.365L74.328,155.365L37.194,33.636Z" style="fill:rgb(28,27,25);fill-rule:nonzero;"/>
                <path d="M284.522,92.664L284.52,33.636L298.692,33.636L298.693,104.328L284.522,92.664Z" style="fill:rgb(23,80,120);fill-opacity:0.9;fill-rule:nonzero;"/>
                <path d="M221.201,155.365L220.974,139.29L125.224,139.29L231.05,33.636L205.695,33.636L86.465,155.365L221.201,155.365Z" style="fill:rgb(23,80,120);fill-rule:nonzero;"/>
                <path d="M152.954,47.807L94.577,47.807L94.577,33.636L167.462,33.636L152.954,47.807Z" style="fill:rgb(23,80,120);fill-rule:nonzero;"/>
                <path d="M322.806,155.365L320.544,155.365L220.507,66.669L220.507,135.256L202.601,135.256L202.601,69.278L224.369,47.807L304.724,116.47L304.723,33.636L322.804,33.636L322.806,155.365Z" style="fill:rgb(28,27,25);fill-rule:nonzero;"/>
            </g>
            <g transform="matrix(1.312931,0,0,1.312931,-65.149993,-37.762146)">
                <g transform="matrix(0.615033,0,0,0.615033,20.8948,76.457929)">
                    <path d="M47.01,150.75C47.01,150.914 47.141,151.061 47.321,151.061L53.772,151.061C53.953,151.061 54.084,150.914 54.084,150.75L54.084,150.276C54.084,150.112 53.953,149.964 53.772,149.964L48.27,149.964L48.27,145.789L52.97,145.789C53.134,145.789 53.281,145.658 53.281,145.478L53.281,145.003C53.281,144.839 53.134,144.692 52.97,144.692L48.27,144.692L48.27,140.696L53.772,140.696C53.953,140.696 54.084,140.549 54.084,140.385L54.084,139.91C54.084,139.746 53.953,139.599 53.772,139.599L47.321,139.599C47.141,139.599 47.01,139.746 47.01,139.91L47.01,150.75Z" style="fill:rgb(3,4,4);fill-rule:nonzero;"/>
                </g>
                <g transform="matrix(0.615033,0,0,0.615033,20.8948,76.457929)">
                    <path d="M56.654,150.669C56.605,150.898 56.703,151.061 56.949,151.061L57.604,151.061C57.735,151.061 57.882,150.947 57.899,150.832L59.323,142.399L59.389,142.399L62.435,151.045C62.467,151.143 62.615,151.225 62.713,151.225L63.008,151.225C63.106,151.225 63.253,151.143 63.286,151.045L66.299,142.399L66.365,142.399L67.822,150.832C67.855,150.947 67.986,151.061 68.117,151.061L68.772,151.061C69.017,151.061 69.115,150.898 69.066,150.669L66.954,139.665C66.921,139.534 66.79,139.435 66.659,139.435L66.397,139.435C66.283,139.435 66.152,139.517 66.119,139.615L62.926,148.638L62.844,148.638L59.602,139.615C59.569,139.517 59.438,139.435 59.323,139.435L59.061,139.435C58.93,139.435 58.799,139.534 58.767,139.665L56.654,150.669Z" style="fill:rgb(3,4,4);fill-rule:nonzero;"/>
                </g>
                <g transform="matrix(0.615033,0,0,0.615033,20.8948,76.457929)">
                    <path d="M72.358,150.75C72.358,150.914 72.489,151.061 72.669,151.061L73.291,151.061C73.455,151.061 73.602,150.914 73.602,150.75L73.602,146.902L76.304,146.902C78.302,146.902 79.956,145.248 79.956,143.218C79.956,141.237 78.302,139.599 76.288,139.599L72.669,139.599C72.489,139.599 72.358,139.746 72.358,139.91L72.358,150.75ZM73.602,145.691L73.602,140.844L76.206,140.844C77.549,140.844 78.695,141.859 78.695,143.185C78.695,144.593 77.549,145.691 76.206,145.691L73.602,145.691Z" style="fill:rgb(3,4,4);fill-rule:nonzero;"/>
                </g>
                <g transform="matrix(0.615033,0,0,0.615033,20.8948,76.457929)">
                    <path d="M82.052,145.347C82.052,148.622 84.656,151.225 87.931,151.225C91.205,151.225 93.825,148.622 93.825,145.347C93.825,142.072 91.205,139.435 87.931,139.435C84.656,139.435 82.052,142.072 82.052,145.347ZM83.198,145.347C83.198,142.743 85.327,140.582 87.931,140.582C90.534,140.582 92.679,142.743 92.679,145.347C92.679,147.95 90.534,150.079 87.931,150.079C85.327,150.079 83.198,147.95 83.198,145.347Z" style="fill:rgb(3,4,4);fill-rule:nonzero;"/>
                </g>
                <g transform="matrix(0.615033,0,0,0.615033,20.8948,76.457929)">
                    <path d="M99.065,150.996C99.098,151.127 99.229,151.225 99.36,151.225L99.622,151.225C99.736,151.225 99.851,151.143 99.9,151.045L102.684,142.186L102.766,142.186L105.599,151.045C105.648,151.143 105.762,151.225 105.877,151.225L106.139,151.225C106.27,151.225 106.401,151.127 106.434,150.996L109.529,139.992C109.594,139.763 109.463,139.599 109.234,139.599L108.546,139.599C108.415,139.599 108.284,139.714 108.251,139.828L106.024,148.311L105.959,148.311L103.175,139.615C103.142,139.517 103.028,139.435 102.897,139.435L102.602,139.435C102.455,139.435 102.356,139.517 102.324,139.615L99.589,148.311L99.524,148.311L97.247,139.828C97.215,139.714 97.084,139.599 96.953,139.599L96.265,139.599C96.036,139.599 95.905,139.763 95.97,139.992L99.065,150.996Z" style="fill:rgb(3,4,4);fill-rule:nonzero;"/>
                </g>
                <g transform="matrix(0.615033,0,0,0.615033,20.8948,76.457929)">
                    <path d="M112.526,150.75C112.526,150.914 112.657,151.061 112.837,151.061L119.289,151.061C119.469,151.061 119.6,150.914 119.6,150.75L119.6,150.276C119.6,150.112 119.469,149.964 119.289,149.964L113.787,149.964L113.787,145.789L118.486,145.789C118.65,145.789 118.797,145.658 118.797,145.478L118.797,145.003C118.797,144.839 118.65,144.692 118.486,144.692L113.787,144.692L113.787,140.696L119.289,140.696C119.469,140.696 119.6,140.549 119.6,140.385L119.6,139.91C119.6,139.746 119.469,139.599 119.289,139.599L112.837,139.599C112.657,139.599 112.526,139.746 112.526,139.91L112.526,150.75Z" style="fill:rgb(3,4,4);fill-rule:nonzero;"/>
                </g>
                <g transform="matrix(0.615033,0,0,0.615033,20.8948,76.457929)">
                    <path d="M122.991,150.75C122.991,150.914 123.122,151.061 123.302,151.061L123.94,151.061C124.104,151.061 124.251,150.914 124.251,150.75L124.251,146.575L127.379,146.575L129.557,150.914C129.59,150.98 129.672,151.061 129.819,151.061L130.654,151.061C130.932,151.061 131.047,150.799 130.932,150.587L128.689,146.427C130.114,145.854 131.112,144.593 131.112,143.087C131.112,141.138 129.508,139.599 127.543,139.599L123.302,139.599C123.122,139.599 122.991,139.746 122.991,139.91L122.991,150.75ZM124.284,145.494L124.284,140.794L127.461,140.794C128.722,140.794 129.819,141.859 129.819,143.103C129.819,144.446 128.722,145.494 127.461,145.494L124.284,145.494Z" style="fill:rgb(3,4,4);fill-rule:nonzero;"/>
                </g>
                <g transform="matrix(0.615033,0,0,0.615033,20.8948,76.457929)">
                    <path d="M134.584,150.75C134.584,150.914 134.732,151.061 134.895,151.061L135.55,151.061C135.714,151.061 135.862,150.914 135.862,150.75L135.862,139.91C135.862,139.746 135.714,139.599 135.55,139.599L134.895,139.599C134.732,139.599 134.584,139.746 134.584,139.91L134.584,150.75Z" style="fill:rgb(3,4,4);fill-rule:nonzero;"/>
                </g>
                <g transform="matrix(0.615033,0,0,0.615033,20.8948,76.457929)">
                    <path d="M139.971,150.75C139.971,150.914 140.118,151.061 140.282,151.061L140.855,151.061C141.035,151.061 141.166,150.914 141.166,150.75L141.166,141.842L141.183,141.842L148.699,151.225L148.994,151.225C149.157,151.225 149.305,151.094 149.305,150.93L149.305,139.91C149.305,139.746 149.157,139.599 148.994,139.599L148.421,139.599C148.24,139.599 148.109,139.746 148.109,139.91L148.109,148.638L148.077,148.638L140.692,139.435L140.282,139.435C140.118,139.435 139.971,139.566 139.971,139.73L139.971,150.75Z" style="fill:rgb(3,4,4);fill-rule:nonzero;"/>
                </g>
                <g transform="matrix(0.615033,0,0,0.615033,20.8948,76.457929)">
                    <path d="M152.579,145.347C152.579,148.622 155.216,151.225 158.491,151.225C160.865,151.225 162.535,150.145 162.535,150.145C162.601,150.095 162.666,149.964 162.666,149.883L162.666,146.133C162.666,145.969 162.535,145.822 162.372,145.822L159.539,145.822C159.359,145.822 159.228,145.953 159.228,146.133L159.228,146.739C159.228,146.902 159.359,147.033 159.539,147.033L161.422,147.033L161.422,149.326C161.422,149.326 160.276,150.014 158.474,150.014C155.887,150.014 153.922,147.803 153.922,145.281C153.922,142.743 155.887,140.582 158.474,140.582C159.571,140.582 160.75,141.122 161.586,141.859C161.766,142.023 161.864,142.039 162.011,141.875C162.142,141.728 162.322,141.564 162.47,141.417C162.601,141.286 162.584,141.089 162.453,140.958C161.34,140.008 160.145,139.435 158.491,139.435C155.216,139.435 152.579,142.072 152.579,145.347Z" style="fill:rgb(3,4,4);fill-rule:nonzero;"/>
                </g>
                <g transform="matrix(0.615033,0,0,0.615033,20.8948,76.457929)">
                    <path d="M172.884,150.75C172.884,150.914 173.015,151.061 173.195,151.061L173.833,151.061C173.997,151.061 174.144,150.914 174.144,150.75L174.144,145.527L178.14,140.074C178.271,139.861 178.14,139.599 177.878,139.599L177.108,139.599C176.994,139.599 176.895,139.681 176.846,139.746L173.539,144.315L170.231,139.746C170.182,139.681 170.083,139.599 169.969,139.599L169.199,139.599C168.937,139.599 168.806,139.861 168.937,140.074L172.884,145.543L172.884,150.75Z" style="fill:rgb(3,4,4);fill-rule:nonzero;"/>
                </g>
                <g transform="matrix(0.615033,0,0,0.615033,20.8948,76.457929)">
                    <path d="M179.565,145.347C179.565,148.622 182.168,151.225 185.443,151.225C188.718,151.225 191.338,148.622 191.338,145.347C191.338,142.072 188.718,139.435 185.443,139.435C182.168,139.435 179.565,142.072 179.565,145.347ZM180.711,145.347C180.711,142.743 182.84,140.582 185.443,140.582C188.047,140.582 190.192,142.743 190.192,145.347C190.192,147.95 188.047,150.079 185.443,150.079C182.84,150.079 180.711,147.95 180.711,145.347Z" style="fill:rgb(3,4,4);fill-rule:nonzero;"/>
                </g>
                <g transform="matrix(0.615033,0,0,0.615033,20.8948,76.457929)">
                    <path d="M194.465,146.837C194.465,149.326 196.218,151.225 198.788,151.225C201.376,151.225 203.144,149.326 203.144,146.837L203.144,139.91C203.144,139.746 202.997,139.599 202.833,139.599L202.211,139.599C202.031,139.599 201.9,139.746 201.9,139.91L201.9,146.771C201.9,148.638 200.721,150.063 198.788,150.063C196.873,150.063 195.71,148.605 195.71,146.739L195.71,139.91C195.71,139.746 195.579,139.599 195.399,139.599L194.777,139.599C194.613,139.599 194.465,139.746 194.465,139.91L194.465,146.837Z" style="fill:rgb(3,4,4);fill-rule:nonzero;"/>
                </g>
                <g transform="matrix(0.615033,0,0,0.615033,20.8948,76.457929)">
                    <path d="M207.107,150.75C207.107,150.914 207.238,151.061 207.418,151.061L208.057,151.061C208.22,151.061 208.368,150.914 208.368,150.75L208.368,146.575L211.495,146.575L213.673,150.914C213.706,150.98 213.788,151.061 213.935,151.061L214.77,151.061C215.049,151.061 215.163,150.799 215.049,150.587L212.805,146.427C214.23,145.854 215.229,144.593 215.229,143.087C215.229,141.138 213.624,139.599 211.659,139.599L207.418,139.599C207.238,139.599 207.107,139.746 207.107,139.91L207.107,150.75ZM208.401,145.494L208.401,140.794L211.577,140.794C212.838,140.794 213.935,141.859 213.935,143.103C213.935,144.446 212.838,145.494 211.577,145.494L208.401,145.494Z" style="fill:rgb(3,4,4);fill-rule:nonzero;"/>
                </g>
                <g transform="matrix(0.615033,0,0,0.615033,20.8948,76.457929)">
                    <path d="M226.495,151.045C226.544,151.143 226.658,151.225 226.773,151.225L226.937,151.225C227.068,151.225 227.166,151.143 227.215,151.045L232.193,140.025C232.291,139.812 232.16,139.599 231.915,139.599L231.26,139.599C231.129,139.599 231.014,139.697 230.981,139.779L226.904,148.949L226.838,148.949L222.761,139.779C222.728,139.697 222.63,139.599 222.483,139.599L221.828,139.599C221.582,139.599 221.451,139.812 221.549,140.025L226.495,151.045Z" style="fill:rgb(3,4,4);fill-rule:nonzero;"/>
                </g>
                <g transform="matrix(0.615033,0,0,0.615033,20.8948,76.457929)">
                    <path d="M234.749,150.75C234.749,150.914 234.896,151.061 235.06,151.061L235.715,151.061C235.878,151.061 236.026,150.914 236.026,150.75L236.026,139.91C236.026,139.746 235.878,139.599 235.715,139.599L235.06,139.599C234.896,139.599 234.749,139.746 234.749,139.91L234.749,150.75Z" style="fill:rgb(3,4,4);fill-rule:nonzero;"/>
                </g>
                <g transform="matrix(0.615033,0,0,0.615033,20.8948,76.457929)">
                    <path d="M239.497,149.899C239.71,150.095 241.02,151.225 242.952,151.225C244.868,151.225 246.489,149.981 246.489,148.278C246.489,146.378 245.064,145.543 242.854,144.643C241.478,144.069 240.643,143.431 240.643,142.334C240.643,141.646 241.167,140.532 242.903,140.532C243.902,140.532 244.933,141.22 245.048,141.286C245.31,141.433 245.474,141.368 245.621,141.138C245.686,141.04 245.752,140.925 245.817,140.827C246.014,140.516 245.817,140.32 245.719,140.27C245.719,140.27 244.524,139.435 242.919,139.435C240.315,139.435 239.431,141.237 239.431,142.35C239.431,144.217 240.512,144.954 242.313,145.74C244.196,146.526 245.179,147.197 245.179,148.327C245.179,149.293 244.311,150.128 242.985,150.128C241.527,150.128 240.332,148.982 240.217,148.884C239.988,148.687 239.808,148.818 239.644,149.031C239.562,149.129 239.48,149.244 239.398,149.342C239.202,149.653 239.366,149.784 239.497,149.899Z" style="fill:rgb(3,4,4);fill-rule:nonzero;"/>
                </g>
                <g transform="matrix(0.615033,0,0,0.615033,20.8948,76.457929)">
                    <path d="M249.632,150.75C249.632,150.914 249.78,151.061 249.944,151.061L250.599,151.061C250.762,151.061 250.91,150.914 250.91,150.75L250.91,139.91C250.91,139.746 250.762,139.599 250.599,139.599L249.944,139.599C249.78,139.599 249.632,139.746 249.632,139.91L249.632,150.75Z" style="fill:rgb(3,4,4);fill-rule:nonzero;"/>
                </g>
                <g transform="matrix(0.615033,0,0,0.615033,20.8948,76.457929)">
                    <path d="M254.185,145.347C254.185,148.622 256.789,151.225 260.064,151.225C263.339,151.225 265.959,148.622 265.959,145.347C265.959,142.072 263.339,139.435 260.064,139.435C256.789,139.435 254.185,142.072 254.185,145.347ZM255.331,145.347C255.331,142.743 257.46,140.582 260.064,140.582C262.667,140.582 264.812,142.743 264.812,145.347C264.812,147.95 262.667,150.079 260.064,150.079C257.46,150.079 255.331,147.95 255.331,145.347Z" style="fill:rgb(3,4,4);fill-rule:nonzero;"/>
                </g>
                <g transform="matrix(0.615033,0,0,0.615033,20.8948,76.457929)">
                    <path d="M269.233,150.75C269.233,150.914 269.38,151.061 269.544,151.061L270.117,151.061C270.297,151.061 270.428,150.914 270.428,150.75L270.428,141.842L270.445,141.842L277.961,151.225L278.256,151.225C278.419,151.225 278.567,151.094 278.567,150.93L278.567,139.91C278.567,139.746 278.419,139.599 278.256,139.599L277.682,139.599C277.502,139.599 277.371,139.746 277.371,139.91L277.371,148.638L277.339,148.638L269.954,139.435L269.544,139.435C269.38,139.435 269.233,139.566 269.233,139.73L269.233,150.75Z" style="fill:rgb(3,4,4);fill-rule:nonzero;"/>
                </g>
                <g transform="matrix(0.615033,0,0,0.615033,20.8948,76.457929)">
                    <path d="M281.727,150.292C281.727,150.799 282.153,151.225 282.66,151.225C282.726,151.225 282.791,151.225 282.857,151.209C282.857,152.404 282.005,153.125 281.842,153.272C281.678,153.419 281.662,153.583 281.743,153.665L281.973,153.894C282.071,153.993 282.202,154.009 282.366,153.862C282.89,153.37 283.741,152.191 283.741,150.832C283.741,149.653 283.184,149.359 282.66,149.359C282.153,149.359 281.727,149.768 281.727,150.292Z" style="fill:rgb(3,4,4);fill-rule:nonzero;"/>
                </g>
                <g transform="matrix(0.615033,0,0,0.615033,20.8948,76.457929)">
                    <path d="M291.486,150.75C291.486,150.914 291.617,151.061 291.797,151.061L298.249,151.061C298.429,151.061 298.56,150.914 298.56,150.75L298.56,150.276C298.56,150.112 298.429,149.964 298.249,149.964L292.747,149.964L292.747,145.789L297.447,145.789C297.61,145.789 297.758,145.658 297.758,145.478L297.758,145.003C297.758,144.839 297.61,144.692 297.447,144.692L292.747,144.692L292.747,140.696L298.249,140.696C298.429,140.696 298.56,140.549 298.56,140.385L298.56,139.91C298.56,139.746 298.429,139.599 298.249,139.599L291.797,139.599C291.617,139.599 291.486,139.746 291.486,139.91L291.486,150.75Z" style="fill:rgb(3,4,4);fill-rule:nonzero;"/>
                </g>
                <g transform="matrix(0.615033,0,0,0.615033,20.8948,76.457929)">
                    <path d="M300.935,150.603C300.804,150.816 300.935,151.061 301.229,151.061L301.983,151.061C302.114,151.061 302.212,150.996 302.261,150.914L305.028,146.28L305.045,146.28L307.845,150.914C307.878,150.98 307.992,151.061 308.123,151.061L308.877,151.061C309.155,151.061 309.286,150.832 309.155,150.603L305.847,145.183L309.04,140.058C309.171,139.845 309.04,139.599 308.762,139.599L307.878,139.599C307.747,139.599 307.648,139.665 307.599,139.746L305.045,144.086L305.028,144.086L302.507,139.746C302.458,139.665 302.343,139.599 302.228,139.599L301.344,139.599C301.066,139.599 300.935,139.845 301.066,140.058L304.259,145.183L300.935,150.603Z" style="fill:rgb(3,4,4);fill-rule:nonzero;"/>
                </g>
                <g transform="matrix(0.615033,0,0,0.615033,20.8948,76.457929)">
                    <path d="M312.266,150.75C312.266,150.914 312.397,151.061 312.578,151.061L319.029,151.061C319.209,151.061 319.34,150.914 319.34,150.75L319.34,150.276C319.34,150.112 319.209,149.964 319.029,149.964L313.527,149.964L313.527,145.789L318.227,145.789C318.391,145.789 318.538,145.658 318.538,145.478L318.538,145.003C318.538,144.839 318.391,144.692 318.227,144.692L313.527,144.692L313.527,140.696L319.029,140.696C319.209,140.696 319.34,140.549 319.34,140.385L319.34,139.91C319.34,139.746 319.209,139.599 319.029,139.599L312.578,139.599C312.397,139.599 312.266,139.746 312.266,139.91L312.266,150.75Z" style="fill:rgb(3,4,4);fill-rule:nonzero;"/>
                </g>
                <g transform="matrix(0.615033,0,0,0.615033,20.8948,76.457929)">
                    <path d="M321.845,145.347C321.845,148.622 324.482,151.225 327.757,151.225C329.214,151.225 330.622,150.718 331.736,149.637C331.85,149.522 331.883,149.293 331.752,149.195L331.261,148.753C331.163,148.687 331.032,148.671 330.868,148.802C330,149.457 329.165,150.03 327.74,150.03C325.153,150.03 323.172,147.852 323.172,145.33C323.172,142.792 325.153,140.614 327.74,140.614C328.854,140.614 330.016,141.106 330.868,141.842C331.032,142.006 331.163,142.023 331.294,141.859L331.736,141.417C331.867,141.286 331.85,141.089 331.719,140.958C330.606,140.008 329.411,139.435 327.757,139.435C324.482,139.435 321.845,142.072 321.845,145.347Z" style="fill:rgb(3,4,4);fill-rule:nonzero;"/>
                </g>
                <g transform="matrix(0.615033,0,0,0.615033,20.8948,76.457929)">
                    <path d="M334.881,146.837C334.881,149.326 336.633,151.225 339.204,151.225C341.791,151.225 343.56,149.326 343.56,146.837L343.56,139.91C343.56,139.746 343.412,139.599 343.248,139.599L342.626,139.599C342.446,139.599 342.315,139.746 342.315,139.91L342.315,146.771C342.315,148.638 341.136,150.063 339.204,150.063C337.288,150.063 336.125,148.605 336.125,146.739L336.125,139.91C336.125,139.746 335.994,139.599 335.814,139.599L335.192,139.599C335.028,139.599 334.881,139.746 334.881,139.91L334.881,146.837Z" style="fill:rgb(3,4,4);fill-rule:nonzero;"/>
                </g>
                <g transform="matrix(0.615033,0,0,0.615033,20.8948,76.457929)">
                    <path d="M349.143,150.75C349.143,150.914 349.291,151.061 349.455,151.061L350.077,151.061C350.241,151.061 350.388,150.914 350.388,150.75L350.388,140.696L353.237,140.696C353.417,140.696 353.548,140.549 353.548,140.385L353.548,139.91C353.548,139.746 353.417,139.599 353.237,139.599L346.294,139.599C346.114,139.599 345.983,139.746 345.983,139.91L345.983,140.385C345.983,140.549 346.114,140.696 346.294,140.696L349.143,140.696L349.143,150.75Z" style="fill:rgb(3,4,4);fill-rule:nonzero;"/>
                </g>
                <g transform="matrix(0.615033,0,0,0.615033,20.8948,76.457929)">
                    <path d="M356.119,150.75C356.119,150.914 356.266,151.061 356.43,151.061L357.085,151.061C357.249,151.061 357.396,150.914 357.396,150.75L357.396,139.91C357.396,139.746 357.249,139.599 357.085,139.599L356.43,139.599C356.266,139.599 356.119,139.746 356.119,139.91L356.119,150.75Z" style="fill:rgb(3,4,4);fill-rule:nonzero;"/>
                </g>
                <g transform="matrix(0.615033,0,0,0.615033,20.8948,76.457929)">
                    <path d="M361.507,150.75C361.507,150.914 361.654,151.061 361.818,151.061L362.391,151.061C362.571,151.061 362.702,150.914 362.702,150.75L362.702,141.842L362.718,141.842L370.235,151.225L370.529,151.225C370.693,151.225 370.84,151.094 370.84,150.93L370.84,139.91C370.84,139.746 370.693,139.599 370.529,139.599L369.956,139.599C369.776,139.599 369.645,139.746 369.645,139.91L369.645,148.638L369.612,148.638L362.227,139.435L361.818,139.435C361.654,139.435 361.507,139.566 361.507,139.73L361.507,150.75Z" style="fill:rgb(3,4,4);fill-rule:nonzero;"/>
                </g>
                <g transform="matrix(0.615033,0,0,0.615033,20.8948,76.457929)">
                    <path d="M374.115,145.347C374.115,148.622 376.751,151.225 380.026,151.225C382.401,151.225 384.071,150.145 384.071,150.145C384.136,150.095 384.202,149.964 384.202,149.883L384.202,146.133C384.202,145.969 384.071,145.822 383.907,145.822L381.074,145.822C380.894,145.822 380.763,145.953 380.763,146.133L380.763,146.739C380.763,146.902 380.894,147.033 381.074,147.033L382.957,147.033L382.957,149.326C382.957,149.326 381.811,150.014 380.01,150.014C377.423,150.014 375.458,147.803 375.458,145.281C375.458,142.743 377.423,140.582 380.01,140.582C381.107,140.582 382.286,141.122 383.121,141.859C383.301,142.023 383.4,142.039 383.547,141.875C383.678,141.728 383.858,141.564 384.005,141.417C384.136,141.286 384.12,141.089 383.989,140.958C382.876,140.008 381.68,139.435 380.026,139.435C376.751,139.435 374.115,142.072 374.115,145.347Z" style="fill:rgb(3,4,4);fill-rule:nonzero;"/>
                </g>
                <g transform="matrix(0.615033,0,0,0.615033,20.8948,76.457929)">
                    <path d="M392.11,150.75C392.11,150.914 392.241,151.061 392.422,151.061L398.873,151.061C399.053,151.061 399.184,150.914 399.184,150.75L399.184,150.276C399.184,150.112 399.053,149.964 398.873,149.964L393.371,149.964L393.371,145.789L398.071,145.789C398.235,145.789 398.382,145.658 398.382,145.478L398.382,145.003C398.382,144.839 398.235,144.692 398.071,144.692L393.371,144.692L393.371,140.696L398.873,140.696C399.053,140.696 399.184,140.549 399.184,140.385L399.184,139.91C399.184,139.746 399.053,139.599 398.873,139.599L392.422,139.599C392.241,139.599 392.11,139.746 392.11,139.91L392.11,150.75Z" style="fill:rgb(3,4,4);fill-rule:nonzero;"/>
                </g>
                <g transform="matrix(0.615033,0,0,0.615033,20.8948,76.457929)">
                    <path d="M401.559,150.603C401.428,150.816 401.559,151.061 401.854,151.061L402.607,151.061C402.738,151.061 402.836,150.996 402.885,150.914L405.653,146.28L405.669,146.28L408.469,150.914C408.502,150.98 408.617,151.061 408.748,151.061L409.501,151.061C409.779,151.061 409.91,150.832 409.779,150.603L406.472,145.183L409.665,140.058C409.796,139.845 409.665,139.599 409.386,139.599L408.502,139.599C408.371,139.599 408.273,139.665 408.224,139.746L405.669,144.086L405.653,144.086L403.131,139.746C403.082,139.665 402.967,139.599 402.853,139.599L401.968,139.599C401.69,139.599 401.559,139.845 401.69,140.058L404.883,145.183L401.559,150.603Z" style="fill:rgb(3,4,4);fill-rule:nonzero;"/>
                </g>
                <g transform="matrix(0.615033,0,0,0.615033,20.8948,76.457929)">
                    <path d="M411.925,145.347C411.925,148.622 414.561,151.225 417.836,151.225C419.293,151.225 420.702,150.718 421.815,149.637C421.93,149.522 421.962,149.293 421.831,149.195L421.34,148.753C421.242,148.687 421.111,148.671 420.947,148.802C420.079,149.457 419.244,150.03 417.82,150.03C415.232,150.03 413.251,147.852 413.251,145.33C413.251,142.792 415.232,140.614 417.82,140.614C418.933,140.614 420.096,141.106 420.947,141.842C421.111,142.006 421.242,142.023 421.373,141.859L421.815,141.417C421.946,141.286 421.93,141.089 421.799,140.958C420.685,140.008 419.49,139.435 417.836,139.435C414.561,139.435 411.925,142.072 411.925,145.347Z" style="fill:rgb(3,4,4);fill-rule:nonzero;"/>
                </g>
                <g transform="matrix(0.615033,0,0,0.615033,20.8948,76.457929)">
                    <path d="M425.107,150.75C425.107,150.914 425.238,151.061 425.418,151.061L431.869,151.061C432.049,151.061 432.18,150.914 432.18,150.75L432.18,150.276C432.18,150.112 432.049,149.964 431.869,149.964L426.367,149.964L426.367,145.789L431.067,145.789C431.231,145.789 431.378,145.658 431.378,145.478L431.378,145.003C431.378,144.839 431.231,144.692 431.067,144.692L426.367,144.692L426.367,140.696L431.869,140.696C432.049,140.696 432.18,140.549 432.18,140.385L432.18,139.91C432.18,139.746 432.049,139.599 431.869,139.599L425.418,139.599C425.238,139.599 425.107,139.746 425.107,139.91L425.107,150.75Z" style="fill:rgb(3,4,4);fill-rule:nonzero;"/>
                </g>
                <g transform="matrix(0.615033,0,0,0.615033,20.8948,76.457929)">
                    <path d="M435.57,150.75C435.57,150.914 435.701,151.061 435.882,151.061L441.547,151.061C441.727,151.061 441.858,150.914 441.858,150.75L441.858,150.276C441.858,150.112 441.727,149.964 441.547,149.964L436.831,149.964L436.831,139.91C436.831,139.746 436.684,139.599 436.52,139.599L435.882,139.599C435.701,139.599 435.57,139.746 435.57,139.91L435.57,150.75Z" style="fill:rgb(3,4,4);fill-rule:nonzero;"/>
                </g>
                <g transform="matrix(0.615033,0,0,0.615033,20.8948,76.457929)">
                    <path d="M444.381,150.75C444.381,150.914 444.512,151.061 444.692,151.061L450.358,151.061C450.538,151.061 450.669,150.914 450.669,150.75L450.669,150.276C450.669,150.112 450.538,149.964 450.358,149.964L445.642,149.964L445.642,139.91C445.642,139.746 445.494,139.599 445.331,139.599L444.692,139.599C444.512,139.599 444.381,139.746 444.381,139.91L444.381,150.75Z" style="fill:rgb(3,4,4);fill-rule:nonzero;"/>
                </g>
                <g transform="matrix(0.615033,0,0,0.615033,20.8948,76.457929)">
                    <path d="M453.191,150.75C453.191,150.914 453.322,151.061 453.502,151.061L459.953,151.061C460.134,151.061 460.265,150.914 460.265,150.75L460.265,150.276C460.265,150.112 460.134,149.964 459.953,149.964L454.451,149.964L454.451,145.789L459.151,145.789C459.315,145.789 459.462,145.658 459.462,145.478L459.462,145.003C459.462,144.839 459.315,144.692 459.151,144.692L454.451,144.692L454.451,140.696L459.953,140.696C460.134,140.696 460.265,140.549 460.265,140.385L460.265,139.91C460.265,139.746 460.134,139.599 459.953,139.599L453.502,139.599C453.322,139.599 453.191,139.746 453.191,139.91L453.191,150.75Z" style="fill:rgb(3,4,4);fill-rule:nonzero;"/>
                </g>
                <g transform="matrix(0.615033,0,0,0.615033,20.8948,76.457929)">
                    <path d="M463.655,150.75C463.655,150.914 463.802,151.061 463.966,151.061L464.539,151.061C464.719,151.061 464.85,150.914 464.85,150.75L464.85,141.842L464.866,141.842L472.382,151.225L472.677,151.225C472.841,151.225 472.988,151.094 472.988,150.93L472.988,139.91C472.988,139.746 472.841,139.599 472.677,139.599L472.104,139.599C471.924,139.599 471.793,139.746 471.793,139.91L471.793,148.638L471.76,148.638L464.375,139.435L463.966,139.435C463.802,139.435 463.655,139.566 463.655,139.73L463.655,150.75Z" style="fill:rgb(3,4,4);fill-rule:nonzero;"/>
                </g>
                <g transform="matrix(0.615033,0,0,0.615033,20.8948,76.457929)">
                    <path d="M476.263,145.347C476.263,148.622 478.899,151.225 482.174,151.225C483.632,151.225 485.04,150.718 486.153,149.637C486.268,149.522 486.301,149.293 486.17,149.195L485.678,148.753C485.58,148.687 485.449,148.671 485.285,148.802C484.418,149.457 483.582,150.03 482.158,150.03C479.571,150.03 477.589,147.852 477.589,145.33C477.589,142.792 479.571,140.614 482.158,140.614C483.271,140.614 484.434,141.106 485.285,141.842C485.449,142.006 485.58,142.023 485.711,141.859L486.153,141.417C486.284,141.286 486.268,141.089 486.137,140.958C485.023,140.008 483.828,139.435 482.174,139.435C478.899,139.435 476.263,142.072 476.263,145.347Z" style="fill:rgb(3,4,4);fill-rule:nonzero;"/>
                </g>
                <g transform="matrix(0.615033,0,0,0.615033,20.8948,76.457929)">
                    <path d="M489.445,150.75C489.445,150.914 489.576,151.061 489.756,151.061L496.208,151.061C496.388,151.061 496.519,150.914 496.519,150.75L496.519,150.276C496.519,150.112 496.388,149.964 496.208,149.964L490.706,149.964L490.706,145.789L495.405,145.789C495.569,145.789 495.716,145.658 495.716,145.478L495.716,145.003C495.716,144.839 495.569,144.692 495.405,144.692L490.706,144.692L490.706,140.696L496.208,140.696C496.388,140.696 496.519,140.549 496.519,140.385L496.519,139.91C496.519,139.746 496.388,139.599 496.208,139.599L489.756,139.599C489.576,139.599 489.445,139.746 489.445,139.91L489.445,150.75Z" style="fill:rgb(3,4,4);fill-rule:nonzero;"/>
                </g>
            </g>
        </g>
    </g>
</svg>
