<?xml version="1.0" encoding="UTF-8"?>
<svg id="Layer_2" data-name="Layer 2" xmlns="http://www.w3.org/2000/svg" viewBox="0 0 1145.91 255.8">
  <defs>
    <style>
      .cls-1 {
        font-family: Manufaktur-ItalicUltraExpandedBold, Manufaktur;
        font-size: 36.57px;
        font-style: italic;
        font-weight: 700;
      }

      .cls-1, .cls-2 {
        fill: #6e7072;
      }

      .cls-3 {
        font-family: MyriadPro-Regular, 'Myriad Pro';
        font-size: 18.29px;
      }

      .cls-3, .cls-4, .cls-5 {
        fill: #163158;
      }

      .cls-6 {
        letter-spacing: -.01em;
      }

      .cls-4 {
        font-family: FierceExtraBold, Fierce;
        font-size: 82.9px;
      }

      .cls-7 {
        letter-spacing: -.02em;
      }

      .cls-8 {
        letter-spacing: -.01em;
      }

      .cls-9 {
        letter-spacing: -.01em;
      }
    </style>
  </defs>
  <g id="Layer_1" data-name="Layer 1">
    <g>
      <text class="cls-4" transform="translate(94.11 153.24)"><tspan class="cls-8" x="0" y="0">BROOKST</tspan><tspan class="cls-6" x="585.2" y="0">O</tspan><tspan class="cls-8" x="677.14" y="0">NE</tspan></text>
      <text class="cls-3" transform="translate(929.82 106.82)"><tspan x="0" y="0">™</tspan></text>
      <g>
        <g>
          <path class="cls-5" d="M130.21.14c.06,0,5.94-.32,7.51,2.19,3.07,6.96,4,15.6,6.8,22.5,1.85,4.57,12.62,7.75,17.43,6.75s13.51-10.67,18.94-13.68c4.69-2.61,5.73-.82,9.57,1.7,3.66,2.4,12.76,8.61,15.48,11.47,1.02,1.08,1.71,2.09,1.31,3.67l-6.67,18.95c-.87,2.46-3.83,3.4-5.97,1.91-25.44-17.82-56.85-21.93-86.01-9.25-62.16,27.03-69.63,111.26-14.03,149.71,26.29,18.18,62.79,19.82,90.54,3.85.09-.05.17-.1.26-.16l9.19-6.01c2.16-1.41,5.07-.4,5.89,2.04l6.44,19.11c.35,1.04.29,2.21-.27,3.16-.16.28-.35.54-.58.79-2.59,2.76-14.29,10.87-17.95,13.12-1.96,1.21-2.8,2.07-5.38,1.29l-19.36-14.62c-.62-.47-1.35-.77-2.13-.79-4.21-.11-12.49,2.63-14.94,4.98-3.43,3.31-4.72,14.01-6.47,19.04-.93,2.66-1.4,8.18-4.56,8.68-4.61.73-19.73,3.95-27.16-1.62-1.8-1.35-5.63-19.7-7.6-23.82-2.07-4.32-13.32-8.13-18.06-6.51-4.1,1.4-9.98,7.48-13.79,10.33-1.28.96-4.53,6.5-8.21,5.51-6.07-1.64-18.06-13-19.88-14.68-2.08-1.92-2.5-2.28-2.1-5.38.87-6.72,6.56-15.53,7.81-21.98.71-3.64-7.04-16.33-16.16-16.09-5.68.15-13.44,1.48-18.93.98h-.03c-1.56-.14-2.89-1.19-3.38-2.68L.06,151.49c-.16-1.81.93-2.89,2.16-3.99,5.21-4.62,12.81-8.07,18.3-12.67.43-.36.78-.8,1.02-1.3,3.36-7.07,1.95-16.27-4.19-21.45-2.61-2.2-16.83-11.05-17.16-12.15-1.27-4.18,4.31-17.02,6.35-23.3.49-1.5,1.5-2.8,2.92-3.5.29-.14.57-.24.8-.27,7.22-.84,17.79,1.27,24.51-.1,1.54-.31,3.1-1.82,4.14-2.95,1.39-1.51,6.68-8.41,6.98-10.04.22-1.18.2-2.38,0-3.56l-7.96-22.33c-.23-1.69,1.28-2.75,2.44-3.72,3.4-2.83,14.92-11.52,18.44-13.23,1.4-.68,2.5-1.27,4.03-.3l19.75,14.69c.83.62,1.86.9,2.88.74,4.18-.63,13.68-3.48,15.43-7.58,2.7-6.31,3.5-15.29,6.23-21.64.17-.39.33-.71.51-.99.71-1.11,2.01-1.68,3.33-1.65,6.35.16,12.99-.47,19.24-.06Z"/>
          <path class="cls-2" d="M925.53,65.1H195.04c-2.71-1.35-5.61-2.99-9.77-4.89-16.97-7.76-34.93-9.55-53.04-4.6-5.91,1.61-11.64,4.08-16.83,7.28l11.44-3.22c21.29-5.08,42.59,1.26,61.17,11.51,4.53.08,737.52-.16,737.52-.16v-5.92Z"/>
          <path class="cls-2" d="M400.54,185.43h-205.49c-2.71,1.35-5.61,2.99-9.77,4.89-16.97,7.76-34.93,9.55-53.04,4.6-5.91-1.61-11.64-4.08-16.83-7.28l11.44,3.22c21.29,5.08,42.59-1.26,61.17-11.51,4.53-.08,212.53.16,212.53.16v5.92Z"/>
        </g>
        <text class="cls-1" transform="translate(407.06 197.02)"><tspan class="cls-9" x="0" y="0">BETTER. METAL. </tspan><tspan class="cls-7" x="351.64" y="0">F</tspan><tspan class="cls-9" x="378.7" y="0">ASTER.</tspan></text>
      </g>
    </g>
  </g>
</svg>