<?xml version="1.0" encoding="UTF-8"?>
<svg id="Layer_2" data-name="Layer 2" xmlns="http://www.w3.org/2000/svg" viewBox="0 0 260.61 59.3">
  <defs>
    <style>
      .cls-1 {
        fill: #282d1a;
      }

      .cls-2 {
        fill: none;
      }
    </style>
  </defs>
  <g id="Layer_1" data-name="Layer 1">
    <g>
      <path class="cls-2" d="M55.01,7.27v10.9h3.79c1.9,0,3.67-2.54,3.67-5.45s-1.77-5.45-3.67-5.45h-3.79Z"/>
      <polygon class="cls-2" points="82.07 8 81.81 8 79.92 14.9 83.96 14.9 82.07 8"/>
      <rect class="cls-2" x="121.55" y="37.76" width="10.77" height="3.59"/>
      <polygon class="cls-2" points="164.63 38.95 161.64 46.53 168.02 46.53 165.03 38.95 164.63 38.95"/>
      <path class="cls-2" d="M88.64,36.96c-3.99,0-7.18,3.19-7.18,7.18s3.19,7.18,7.18,7.18,7.18-3.19,7.18-7.18-3.19-7.18-7.18-7.18Z"/>
      <polygon class="cls-1" points="20.86 15.27 14.92 15.27 14.92 18.17 8.72 18.17 6.83 12.72 8.72 7.27 14.92 7.27 14.92 10.18 20.86 10.18 20.86 0 4.55 0 0 12.72 4.55 25.44 20.86 25.44 20.86 15.27"/>
      <polygon class="cls-1" points="44.01 9.81 44.01 0 25.67 0 25.67 25.44 44.01 25.44 44.01 15.63 38.06 15.63 38.06 18.54 31.87 18.54 31.87 15.99 36.67 15.99 36.67 9.81 31.87 9.81 31.87 6.91 38.06 6.91 38.06 9.81 44.01 9.81"/>
      <path class="cls-1" d="M48.81,0v25.44h9.99c5.94,0,10.12-6,10.12-12.72S64.74,0,58.8,0h-9.99ZM62.47,12.72c0,2.91-1.77,5.45-3.67,5.45h-3.79V7.27h3.79c1.9,0,3.67,2.54,3.67,5.45Z"/>
      <path class="cls-1" d="M78.15,21.45h7.59l1.14,4h6.83L85.86,0h-7.84l-7.84,25.44h6.83l1.14-4ZM81.81,8h.25l1.9,6.91h-4.05l1.9-6.91Z"/>
      <path class="cls-1" d="M113.43,16.72h2.4V0h-19.22v25.44h6.2v-8.72h4.05l3.03,8.72h6.58l-3.03-8.72ZM109.63,10.18h-6.83v-3.27h6.83v3.27Z"/>
      <polygon class="cls-1" points="147.95 8.72 147.95 0 129.74 0 129.74 12.9 141.75 17.08 141.75 18.54 135.68 18.54 135.68 16.72 129.74 16.72 129.74 25.44 147.95 25.44 147.95 12.36 135.93 8.18 135.93 6.91 142 6.91 142 8.72 147.95 8.72"/>
      <polygon class="cls-1" points="163.37 25.44 163.37 7.27 169.7 7.27 169.7 0 150.86 0 150.86 7.27 157.18 7.27 157.18 25.44 163.37 25.44"/>
      <path class="cls-1" d="M192.33,0h-19.22v25.44h6.2v-8.72h4.05l3.03,8.72h6.58l-3.03-8.72h2.4V0ZM186.14,10.18h-6.83v-3.27h6.83v3.27Z"/>
      <polygon class="cls-1" points="215.72 9.81 215.72 0 197.39 0 197.39 25.44 215.72 25.44 215.72 15.63 209.78 15.63 209.78 18.54 203.59 18.54 203.59 15.99 208.39 15.99 208.39 9.81 203.59 9.81 203.59 6.91 209.78 6.91 209.78 9.81 215.72 9.81"/>
      <polygon class="cls-1" points="238.87 15.63 232.92 15.63 232.92 18.54 226.73 18.54 226.73 15.99 231.53 15.99 231.53 9.81 226.73 9.81 226.73 6.91 232.92 6.91 232.92 9.81 238.87 9.81 238.87 0 220.53 0 220.53 25.44 238.87 25.44 238.87 15.63"/>
      <polygon class="cls-1" points="241.77 0 241.77 7.27 248.1 7.27 248.1 25.44 254.29 25.44 254.29 7.27 260.61 7.27 260.61 0 241.77 0"/>
      <polygon class="cls-1" points="6.24 44.34 25.18 48.92 25.18 50.52 15.61 50.52 15.61 48.53 6.24 48.53 6.24 58.1 34.96 58.1 34.96 43.74 16.01 39.15 16.01 37.76 25.58 37.76 25.58 39.75 34.96 39.75 34.96 30.18 6.24 30.18 6.24 44.34"/>
      <polygon class="cls-1" points="39.54 38.16 49.51 38.16 49.51 58.1 59.29 58.1 59.29 38.16 69.26 38.16 69.26 30.18 39.54 30.18 39.54 38.16"/>
      <path class="cls-1" d="M88.64,28.98c-9.97,0-17.35,7.38-17.35,15.16s7.38,15.16,17.35,15.16,17.35-7.38,17.35-15.16-7.38-15.16-17.35-15.16ZM88.64,51.32c-3.99,0-7.18-3.19-7.18-7.18s3.19-7.18,7.18-7.18,7.18,3.19,7.18,7.18-3.19,7.18-7.18,7.18Z"/>
      <path class="cls-1" d="M142.1,48.53v-18.35h-30.32v27.92h9.77v-9.57h6.38l4.79,9.57h10.37l-4.79-9.57h3.79ZM132.32,41.35h-10.77v-3.59h10.77v3.59Z"/>
      <path class="cls-1" d="M158.65,30.18l-12.37,27.92h10.77l1.79-4.39h11.97l1.79,4.39h10.77l-12.36-27.92h-12.37ZM161.64,46.53l2.99-7.58h.4l2.99,7.58h-6.38Z"/>
      <polygon class="cls-1" points="184.57 44.14 191.75 58.1 217.48 58.1 217.48 41.74 203.32 41.74 203.32 48.13 208.11 48.13 208.11 50.12 198.34 50.12 195.34 44.14 198.34 38.16 208.11 38.16 208.11 39.75 217.48 39.75 217.48 30.18 191.75 30.18 184.57 44.14"/>
      <polygon class="cls-1" points="225.46 58.1 254.38 58.1 254.38 47.33 245 47.33 245 50.52 235.23 50.52 235.23 47.73 242.81 47.73 242.81 40.95 235.23 40.95 235.23 37.76 245 37.76 245 40.95 254.38 40.95 254.38 30.18 225.46 30.18 225.46 58.1"/>
    </g>
  </g>
</svg>