<?xml version="1.0" encoding="UTF-8" standalone="no"?>
<!DOCTYPE svg PUBLIC "-//W3C//DTD SVG 1.1//EN" "http://www.w3.org/Graphics/SVG/1.1/DTD/svg11.dtd">
<svg width="100%" height="100%" viewBox="0 0 916 1119" version="1.1" xmlns="http://www.w3.org/2000/svg" xmlns:xlink="http://www.w3.org/1999/xlink" xml:space="preserve" xmlns:serif="http://www.serif.com/" style="fill-rule:evenodd;clip-rule:evenodd;stroke-linejoin:round;stroke-miterlimit:2;">
    <g transform="matrix(1,0,0,1,-510,-1373)">
        <g id="Orange-Vertical-Logo" serif:id="Orange Vertical Logo">
            <g transform="matrix(0.703464,0,0,0.703464,-492.049717,1965.266238)">
                <g transform="matrix(0.277784,0,0,0.297623,1174.574279,454.32965)">
                    <g transform="matrix(416.617922,0,0,416.617922,5599.511162,975.238959)">
                    </g>
                    <text x="1385.837px" y="975.239px" style="font-family:'Barques-Bold', 'Barques';font-weight:700;font-size:416.618px;fill:rgb(215,130,63);stroke:rgb(215,130,63);stroke-width:4.94px;">M<tspan x="1845.784px 2268.651px 2732.347px 3117.718px 3621.826px 3969.285px 4429.231px 4776.691px 5244.553px " y="975.239px 975.239px 975.239px 975.239px 975.239px 975.239px 975.239px 975.239px 975.239px ">ANAGEMENT</tspan></text>
                </g>
                <g transform="matrix(0.271791,0,0,0.271791,1042.602641,465.429314)">
                    <path d="M1506.929,975.239L1616.746,975.239C1670.611,975.239 1713.62,930.978 1713.62,876.696L1713.62,814.062L1757.463,814.062L1757.463,778.152L1506.929,778.152C1476.865,778.152 1452.647,753.934 1452.647,723.452C1452.647,692.971 1476.03,667.917 1506.929,667.917L1616.746,667.917C1645.558,667.917 1668.941,690.883 1671.029,719.277L1706.521,719.277C1704.433,672.093 1663.93,632.007 1616.746,632.007L1506.929,632.007C1456.822,632.007 1417.572,673.345 1417.572,723.452C1417.572,749.341 1428.846,776.064 1448.471,791.932L1452.647,795.272L1448.471,798.612C1423.835,817.82 1410.056,845.379 1410.056,876.696C1410.056,930.978 1452.647,975.239 1506.929,975.239ZM1506.929,939.329C1472.689,939.329 1444.713,911.353 1444.713,876.696C1444.713,842.038 1473.107,814.062 1506.929,814.062L1678.545,814.062L1678.545,876.696C1678.545,910.935 1650.568,939.329 1616.746,939.329L1506.929,939.329Z" style="fill:rgb(215,130,63);fill-rule:nonzero;stroke:rgb(215,130,63);stroke-width:5.23px;"/>
                </g>
            </g>
            <g transform="matrix(1,0,0,1,-0.965176,2.611713)">
                <g transform="matrix(1.228528,0,0,1.190347,-13.108419,538.515364)">
                    <path d="M544.016,885.557L469.132,886.409L568.576,703.066L625.168,702.632L624.261,891.994L834.884,891.994L689.739,1066.295C727.425,1066.761 759.988,1082.253 774.643,1111.77C778.55,1119.639 782.263,1132.25 783.382,1142.094C786.271,1167.515 765.481,1214.382 727.146,1228.308C718.728,1231.298 709.676,1232.951 700.223,1232.99L699.88,1232.991C661.217,1232.991 626.99,1206.37 617.483,1168.975L594.665,1168.975C602.826,1214.44 639.933,1250.257 686.269,1255.719C690.317,1256.197 694.436,1256.442 698.612,1256.442C702.557,1256.442 706.454,1256.224 710.292,1255.798C721.55,1254.549 732.296,1251.518 742.248,1246.998L897.209,993.32L871.223,993.32L798.693,1111.616C795.807,1104.221 792.09,1097.17 787.643,1090.595C773.518,1069.713 752.037,1053.643 726.5,1046.647L739.811,1029.534C763.642,1037.874 783.973,1053.075 798.83,1072.373L859.814,973.038L933.971,973.038L762.839,1253.188L893.406,1253.188L893.406,1333.683L901.2,1333.683C903.32,1340.797 906.161,1347.586 909.643,1353.966C927.555,1386.786 962.423,1408.802 1003.243,1408.802C1062.822,1408.802 1109.091,1360.632 1109.091,1302.32C1109.091,1250.98 1072.329,1205.979 1020.356,1197.739L1031.765,1179.358C1089.442,1192.669 1129.373,1244.642 1129.373,1302.32C1129.373,1371.407 1074.231,1429.084 1003.243,1429.084C950.953,1429.084 906.918,1398.134 887.347,1353.966L873.758,1353.966L873.758,1273.47L726.077,1273.47C726.077,1273.47 708.54,1276.091 699.246,1276.091C628.258,1276.091 572.481,1218.413 572.481,1149.326L572.481,1148.692L635.864,1148.692L635.864,1149.326C635.864,1184.186 663.752,1212.708 699.246,1212.708C704.222,1212.708 709.048,1212.148 713.669,1211.088C742.011,1204.587 762.628,1179.299 762.628,1149.326C762.628,1144.169 761.995,1139.141 760.798,1134.321C754.051,1107.152 729.392,1086.578 699.246,1086.578L646.639,1086.578L791.784,912.276L624.147,912.276L624.018,935.094L742.98,935.094L623.158,1079.382L623.158,1079.316L554.509,1079.316L554.507,905.85L574.955,891.153L575.013,1058.742L602.404,1058.518L604.76,721.664L584.126,721.695L503.702,866.074L531.319,865.668L562.189,808.888L585.076,809.35L544.016,885.557ZM623.383,1047.421L699.88,955.376L623.903,955.376L623.383,1047.421ZM809.108,1210.722L913.036,1210.722L916.224,1205.939L916.224,1124.522L893.406,1124.522L893.406,1192.975L873.758,1192.975L873.758,1104.239L936.506,1104.239L936.506,1175.516L1023.525,1044.988L1099.584,1044.988L981.059,1221.824C989.298,1220.557 996.904,1219.289 1005.144,1219.289C1050.779,1219.289 1086.907,1258.586 1086.907,1302.32C1086.907,1348.589 1050.145,1385.985 1003.243,1385.985C975.965,1385.985 951.772,1372.767 936.506,1352.566C925.878,1338.501 919.578,1321.051 919.578,1302.32C919.578,1283.667 925.677,1269.284 936.08,1253.188L945.38,1239.302L1062.188,1065.27L1034.934,1065.27L924.467,1230.37L797.065,1230.37L809.108,1210.722ZM965.662,1251.755C957.846,1257.466 951.428,1264.907 946.948,1273.47C942.41,1282.145 939.86,1291.972 939.86,1302.32C939.86,1337.18 967.748,1365.702 1003.243,1365.702C1038.737,1365.702 1066.625,1337.18 1066.625,1302.32C1066.625,1268.093 1038.737,1239.571 1003.243,1239.571C989.074,1239.571 976.117,1244.116 965.662,1251.755Z" style="fill:rgb(215,130,63);stroke:rgb(215,130,63);stroke-width:6.89px;"/>
                </g>
                <g transform="matrix(0.217375,0,0,0.217375,245.45053,2165.952013)">
                    <g transform="matrix(463.325554,0,0,463.325554,5447.808808,975.238959)">
                    </g>
                    <text x="1192.164px" y="975.239px" style="font-family:'Barques-Bold', 'Barques';font-weight:700;font-size:463.326px;fill:rgb(215,130,63);stroke:rgb(215,130,63);stroke-width:4.6px;">P<tspan x="1668.462px 2135.494px 2681.755px 3158.054px 3544.467px 3997.6px 4438.686px 4620.309px 5006.723px " y="975.239px 975.239px 975.239px 975.239px 975.239px 975.239px 975.239px 975.239px 975.239px ">ROPERTIES</tspan></text>
                </g>
            </g>
        </g>
    </g>
</svg>
